<?xml version="1.0" encoding="UTF-8"?>
<svg width="86px" height="78px" viewBox="0 0 86 78" version="1.1" xmlns="http://www.w3.org/2000/svg" xmlns:xlink="http://www.w3.org/1999/xlink">
    <!-- Generator: Sketch 56.3 (81716) - https://sketch.com -->
    <title>icon-e-sign</title>
    <desc>Created with Sketch.</desc>
    <defs>
        <polygon id="path-1" points="2.98 40.456 0.409 48.846 8.697 46.174 48.649 6.223 42.931 0.505"></polygon>
        <linearGradient x1="15.089614%" y1="50%" x2="85.9857537%" y2="50%" id="linearGradient-3">
            <stop stop-color="#F47D52" offset="0%"></stop>
            <stop stop-color="#F2AB1F" offset="100%"></stop>
        </linearGradient>
    </defs>
    <g id="Page-1" stroke="none" stroke-width="1" fill="none" fill-rule="evenodd">
        <g id="Assets-Playground" transform="translate(-725.000000, -1801.000000)">
            <g id="icon-e-sign" transform="translate(725.000000, 1800.000000)">
                <g id="Group-7" transform="translate(0.000000, 31.869600)">
                    <path d="M61,46 L4,46 C2.35,46 1,44.65 1,43 L1,5.981 C1,4.331 2.35,2.981 4,2.981 L18.735,2.981 L18.735,10.02 L27.596,2.045 L36.457,10.02 L39.926,2.981 L61,2.981 C62.65,2.981 64,4.331 64,5.981 L64,43 C64,44.65 62.65,46 61,46" id="Fill-1" fill="#FEFEFE"></path>
                    <path d="M4,3.981 C2.897,3.981 2,4.878 2,5.981 L2,43 C2,44.103 2.897,45 4,45 L61,45 C62.103,45 63,44.103 63,43 L63,5.981 C63,4.878 62.103,3.981 61,3.981 L40.548,3.981 L36.77,11.647 L27.596,3.39 L17.735,12.266 L17.735,3.981 L4,3.981 Z M61,47 L4,47 C1.794,47 0,45.206 0,43 L0,5.981 C0,3.775 1.794,1.981 4,1.981 L19.735,1.981 L19.735,7.774 L27.596,0.7 L36.144,8.393 L39.304,1.981 L61,1.981 C63.206,1.981 65,3.775 65,5.981 L65,43 C65,45.206 63.206,47 61,47 L61,47 Z" id="Fill-3" fill="#201820"></path>
                    <path d="M21.9995,30.4033 C21.8205,30.4033 21.6095,30.4193 21.3665,30.4553 C19.4395,30.7403 18.2105,33.3043 18.3125,35.4263 C18.3295,35.7723 18.3825,36.1863 18.5135,36.6043 C18.8395,36.4523 19.1325,36.2653 19.3835,36.0403 C21.8755,33.8033 23.0435,31.2873 22.7225,30.6043 C22.6705,30.4933 22.4275,30.4033 21.9995,30.4033 M22.6655,40.8523 C22.2725,40.8523 21.8845,40.8423 21.5025,40.8233 C19.8195,40.7373 18.4595,40.0803 17.5545,38.9863 C13.3775,39.7983 7.9645,37.9933 7.2045,37.7283 L7.8625,35.8403 C9.5745,36.4353 13.5615,37.4613 16.5755,37.1113 C16.4305,36.6203 16.3425,36.0903 16.3155,35.5233 C16.1695,32.4953 17.9475,28.9403 21.0735,28.4763 C23.2815,28.1503 24.1735,28.9903 24.5325,29.7543 C25.4775,31.7633 23.3295,35.1863 20.7195,37.5283 C20.4065,37.8093 20.0605,38.0493 19.6875,38.2503 C20.1555,38.5663 20.7785,38.7833 21.6045,38.8263 C27.7065,39.1353 36.0265,36.5493 36.1095,36.5233 L36.7075,38.4313 C36.3745,38.5363 28.9165,40.8523 22.6655,40.8523" id="Fill-5" fill="#201820"></path>
                </g>
                <g id="Group-10" transform="translate(36.000000, 15.869600)">
                    <mask id="mask-2" fill="white">
                        <use xlink:href="#path-1"></use>
                    </mask>
                    <g id="Clip-9"></g>
                    <polygon id="Fill-8" fill="url(#linearGradient-3)" mask="url(#mask-2)" points="2.98 40.456 0.409 48.846 8.697 46.174 48.649 6.223 42.931 0.505"></polygon>
                </g>
                <g id="Group-19" transform="translate(7.000000, 0.869600)">
                    <path d="M32.8628,55.9873 L30.9258,62.3053 L37.1598,60.2963 L76.2348,21.2223 L71.9308,16.9193 L32.8628,55.9873 Z M27.8908,65.3853 L31.0958,54.9253 L31.2728,54.7493 L71.9308,14.0913 L79.0628,21.2223 L38.2338,62.0513 L27.8908,65.3853 Z" id="Fill-11" fill="#201820"></path>
                    <path d="M4.1143,15.2964 L29.1633,39.3524 L46.9513,3.2684 L4.1143,15.2964 Z M29.7493,42.6874 L0.2063,14.3164 L50.7283,0.1304 L29.7493,42.6874 Z" id="Fill-13" fill="#201820"></path>
                    <polygon id="Fill-15" fill="#201820" points="10.7349 43.2656 10.7349 23.4346 48.3249 0.8426 49.3549 2.5566 12.7349 24.5666 12.7349 38.7746 19.9269 32.3016 21.2649 33.7876"></polygon>
                    <path d="M24.2329,29.6572 C24.0539,29.3562 23.8729,28.9842 23.6909,28.5402 C23.5269,28.1822 23.3939,27.9082 23.2899,27.7172 C23.1859,27.5252 23.0459,27.3492 22.8709,27.1902 C22.6709,27.0102 22.4739,26.9142 22.2759,26.9022 C22.0789,26.8902 21.8629,26.9442 21.6289,27.0642 C21.5069,27.1362 21.3979,27.1272 21.2979,27.0372 L20.0389,25.8942 C19.9789,25.8392 19.9439,25.7742 19.9369,25.6982 C19.9289,25.6212 19.9539,25.5532 20.0089,25.4912 C20.4529,25.0322 20.9449,24.7312 21.4859,24.5882 C22.0249,24.4452 22.5599,24.4672 23.0859,24.6522 C23.2379,24.4702 23.4799,24.1342 23.8139,23.6432 L22.9439,22.8542 C22.8679,22.7852 22.8269,22.6952 22.8209,22.5862 C22.8159,22.4772 22.8479,22.3842 22.9179,22.3082 L23.7479,21.3922 C23.8239,21.3082 23.9149,21.2662 24.0209,21.2642 C24.1269,21.2622 24.2179,21.2972 24.2939,21.3652 L24.8319,21.8542 C24.9209,21.7262 25.0749,21.5392 25.2959,21.2952 C26.1749,20.3262 27.1229,19.8312 28.1349,19.8122 C29.1479,19.7922 30.1699,20.2482 31.1999,21.1832 C31.8399,21.7652 32.3059,22.3892 32.5989,23.0572 C32.8889,23.7252 32.9909,24.3872 32.9019,25.0452 C32.8139,25.7022 32.5249,26.3082 32.0339,26.8652 C31.9719,26.9342 31.8949,26.9722 31.8049,26.9802 C31.7129,26.9882 31.6339,26.9612 31.5649,26.8982 L29.9399,25.4242 C29.7409,25.2442 29.6969,25.0242 29.8089,24.7632 C30.0159,24.3662 30.1069,24.0172 30.0809,23.7162 C30.0549,23.4142 29.9059,23.1392 29.6299,22.8902 C28.9979,22.3152 28.2889,22.4592 27.5069,23.3212 C27.3959,23.4432 27.2449,23.6262 27.0529,23.8682 L28.7239,25.3852 C28.8079,25.4602 28.8519,25.5502 28.8569,25.6522 C28.8619,25.7532 28.8259,25.8462 28.7499,25.9302 L27.9199,26.8462 C27.8499,26.9222 27.7629,26.9652 27.6569,26.9732 C27.5519,26.9822 27.4579,26.9492 27.3739,26.8732 L25.7829,25.4292 C25.7339,25.4972 25.6279,25.6372 25.4639,25.8492 C25.2979,26.0612 25.1329,26.2522 24.9669,26.4212 C25.1459,26.6672 25.3269,27.0132 25.5089,27.4562 C25.6099,27.7132 25.7049,27.9222 25.7969,28.0822 C25.8879,28.2412 26.0149,28.3932 26.1749,28.5392 C26.4029,28.7462 26.6389,28.8602 26.8799,28.8772 C27.1219,28.8952 27.3819,28.8412 27.6609,28.7192 C27.7969,28.6762 27.9069,28.6922 27.9909,28.7682 L29.0899,29.7652 C29.1579,29.8272 29.1929,29.8972 29.1929,29.9732 C29.1929,30.0502 29.1659,30.1192 29.1099,30.1792 C28.6799,30.6382 28.2099,30.9462 27.6999,31.1022 C27.1889,31.2582 26.6939,31.2822 26.2159,31.1742 C25.7359,31.0662 25.3159,30.8492 24.9579,30.5242 C24.6529,30.2472 24.4109,29.9572 24.2329,29.6572" id="Fill-17" fill="#231F20"></path>
                </g>
            </g>
        </g>
    </g>
</svg>