<?xml version="1.0" encoding="UTF-8"?>
<svg width="55px" height="70px" viewBox="0 0 55 70" version="1.1" xmlns="http://www.w3.org/2000/svg" xmlns:xlink="http://www.w3.org/1999/xlink">
    <!-- Generator: Sketch 56.3 (81716) - https://sketch.com -->
    <title>icon-paperwork</title>
    <desc>Created with Sketch.</desc>
    <defs>
        <linearGradient x1="15.089614%" y1="50%" x2="85.9857537%" y2="50%" id="linearGradient-1">
            <stop stop-color="#F47D52" offset="0%"></stop>
            <stop stop-color="#F2AB1F" offset="100%"></stop>
        </linearGradient>
    </defs>
    <g id="Page-1" stroke="none" stroke-width="1" fill="none" fill-rule="evenodd">
        <g id="Assets-Playground" transform="translate(-857.000000, -1813.000000)">
            <g id="icon-paperwork" transform="translate(857.000000, 1813.000000)">
                <path d="M1,9 L43,9 L43,61 C22.0972222,61.3005514 10.7827691,61.3005514 9.05664063,61 C7.33051218,60.6994486 4.64496531,58.2617859 1,53.6870117 L1,9 Z" id="Rectangle" fill="#FFFFFF"></path>
                <path d="M8.4805,62.0485 L8.1505,62.0485 C7.5985,62.0485 7.1505,61.6005 7.1505,61.0485 C7.1505,60.4965 7.5985,60.0485 8.1505,60.0485 L8.4105,60.0485 C8.9625,60.0485 9.4455,60.4965 9.4455,61.0485 C9.4455,61.6005 9.0325,62.0485 8.4805,62.0485" id="Fill-1" fill="#201820"></path>
                <polygon id="Path-17" fill="url(#linearGradient-1)" points="26.331543 56.9635 27.5 51.8785 49.5996094 30.3261719 52.5683594 33.7291 30.9262695 55.2243"></polygon>
                <path d="M8.2404,62.0485 C7.6884,62.0485 7.2404,61.6005 7.2404,61.0485 C7.2404,60.4965 7.6884,60.0485 8.2404,60.0485 L41.5704,60.0485 L41.5704,43.5185 C41.5704,42.9665 42.0184,42.5185 42.5704,42.5185 C43.1224,42.5185 43.5704,42.9665 43.5704,43.5185 L43.5704,61.0485 C43.5704,61.6005 43.1224,62.0485 42.5704,62.0485 L8.2404,62.0485 Z" id="Fill-3" fill="#201820"></path>
                <path d="M41.5704,37.2687 L41.5704,10.0487 L26.1404,10.0487 C25.5884,10.0487 25.1404,9.6007 25.1404,9.0487 C25.1404,8.4967 25.5884,8.0487 26.1404,8.0487 L42.5704,8.0487 C43.1224,8.0487 43.5704,8.4967 43.5704,9.0487 L43.5704,37.2687 C43.5704,37.8207 43.1224,38.2687 42.5704,38.2687 C42.0184,38.2687 41.5704,37.8207 41.5704,37.2687 Z" id="Fill-5" fill="#201820"></path>
                <path d="M1.0001,54.5885 C0.4481,54.5885 0.0001,54.1405 0.0001,53.5885 L0.0001,9.0485 C0.0001,8.4965 0.4481,8.0485 1.0001,8.0485 L28.3701,8.0485 C28.9221,8.0485 29.3701,8.4965 29.3701,9.0485 C29.3701,9.6005 28.9221,10.0485 28.3701,10.0485 L2.0001,10.0485 L2.0001,53.5885 C2.0001,54.1405 1.5521,54.5885 1.0001,54.5885" id="Fill-7" fill="#201820"></path>
                <path d="M8.8302,62.0485 C8.2782,62.0485 7.8302,61.6005 7.8302,61.0485 L7.8302,53.8785 L1.0002,53.8785 C0.4482,53.8785 0.0002,53.4305 0.0002,52.8785 C0.0002,52.3265 0.4482,51.8785 1.0002,51.8785 L8.8302,51.8785 C9.3822,51.8785 9.8302,52.3265 9.8302,52.8785 L9.8302,61.0485 C9.8302,61.6005 9.3822,62.0485 8.8302,62.0485" id="Fill-9" fill="#201820"></path>
                <path d="M8.0748,61.8639 C7.8128,61.8639 7.5508,61.7609 7.3538,61.5569 L0.2768,54.1719 C-0.1042,53.7729 -0.0902,53.1399 0.3088,52.7579 C0.7078,52.3779 1.3408,52.3909 1.7228,52.7899 L8.7958,60.1709 C9.1788,60.5689 9.1658,61.2019 8.7678,61.5849 C8.5748,61.7709 8.3248,61.8639 8.0748,61.8639" id="Fill-11" fill="#201820"></path>
                <path d="M28.5435,52.7043 L27.7715,55.2243 L30.2525,54.4243 L51.2405,33.4363 L49.5255,31.7223 L28.5435,52.7043 Z M24.7355,58.3043 L26.7765,51.6423 L49.5255,28.8933 L54.0685,33.4363 L31.3265,56.1803 L24.7355,58.3043 Z" id="Fill-13" fill="#201820"></path>
                <path d="M9.8233,69.319 C9.7043,69.319 9.5833,69.298 9.4663,69.253 C8.9503,69.055 8.6923,68.477 8.8893,67.961 L34.6493,0.642 C34.8463,0.127 35.4263,-0.13 35.9413,0.066 C36.4563,0.263 36.7153,0.841 36.5173,1.357 L10.7573,68.676 C10.6053,69.074 10.2253,69.319 9.8233,69.319" id="Fill-15" fill="#201820"></path>
                <path d="M19.7403,17.0685 L8.1503,17.0685 C7.5983,17.0685 7.1503,16.6205 7.1503,16.0685 C7.1503,15.5165 7.5983,15.0685 8.1503,15.0685 L19.7403,15.0685 C20.2923,15.0685 20.7403,15.5165 20.7403,16.0685 C20.7403,16.6205 20.2923,17.0685 19.7403,17.0685" id="Fill-17" fill="#201820"></path>
                <path d="M23.9903,21.0685 L8.1503,21.0685 C7.5983,21.0685 7.1503,20.6205 7.1503,20.0685 C7.1503,19.5165 7.5983,19.0685 8.1503,19.0685 L23.9903,19.0685 C24.5423,19.0685 24.9903,19.5165 24.9903,20.0685 C24.9903,20.6205 24.5423,21.0685 23.9903,21.0685" id="Fill-19" fill="#201820"></path>
                <path d="M16.0704,27.8893 L8.0744,27.8893 C7.5224,27.8893 7.0744,27.4413 7.0744,26.8893 C7.0744,26.3373 7.5224,25.8893 8.0744,25.8893 L16.0704,25.8893 C16.6224,25.8893 17.0704,26.3373 17.0704,26.8893 C17.0704,27.4413 16.6224,27.8893 16.0704,27.8893" id="Fill-21" fill="#201820"></path>
            </g>
        </g>
    </g>
</svg>