<?xml version="1.0" encoding="UTF-8"?>
<svg width="44px" height="73px" viewBox="0 0 44 73" version="1.1" xmlns="http://www.w3.org/2000/svg" xmlns:xlink="http://www.w3.org/1999/xlink">
    <!-- Generator: Sketch 56.3 (81716) - https://sketch.com -->
    <title>icon-no-obligation</title>
    <desc>Created with Sketch.</desc>
    <defs>
        <polygon id="path-1" points="0.870802907 0.905717615 22.7751948 0.905717615 22.7751948 39 0.870802907 39"></polygon>
        <linearGradient x1="37.4398732%" y1="50%" x2="62.0217877%" y2="60.3877508%" id="linearGradient-3">
            <stop stop-color="#5CB0E2" offset="0%"></stop>
            <stop stop-color="#6F4FA0" offset="100%"></stop>
        </linearGradient>
        <polygon id="path-4" points="0.799276141 0.642 6.15281461 0.642 6.15281461 6.8626 0.799276141 6.8626"></polygon>
    </defs>
    <g id="Page-1" stroke="none" stroke-width="1" fill="none" fill-rule="evenodd">
        <g id="Assets-Playground" transform="translate(-953.000000, -1813.000000)">
            <g id="icon-no-obligation" transform="translate(953.000000, 1812.000000)">
                <g id="Group-5" transform="translate(2.000000, 34.358500)">
                    <mask id="mask-2" fill="white">
                        <use xlink:href="#path-1"></use>
                    </mask>
                    <g id="Clip-4"></g>
                    <path d="M3.7789,17.6582 C4.2169,18.4392 4.7909,19.6652 5.5169,21.2192 C7.9179,26.3532 12.8959,37.0002 16.7599,37.0002 C16.7869,37.0002 16.8139,36.9992 16.8399,36.9982 C18.7919,36.9232 20.0239,36.4322 20.5019,35.5382 C21.7769,33.1512 18.4359,27.7122 16.2259,24.1142 C14.5719,21.4222 13.7069,19.9692 13.6749,18.9412 C13.5809,16.0142 15.0829,13.8492 16.4079,11.9382 C18.2729,9.2482 19.3989,7.6252 16.5789,4.7622 C13.1629,1.2952 9.3569,3.4932 7.8779,4.5992 C4.0069,7.4952 1.4359,13.4332 3.7789,17.6582 M16.7619,39.0002 C12.0239,39.0002 7.7149,30.6402 3.7049,22.0662 C3.0239,20.6092 2.4349,19.3502 2.0329,18.6342 C2.0319,18.6332 2.0319,18.6322 2.0309,18.6302 C-0.9131,13.3252 2.1519,6.3852 6.6799,2.9982 C10.5739,0.0842 14.9129,0.2222 18.0039,3.3592 C21.9869,7.4022 19.8959,10.4172 18.0509,13.0772 C16.8469,14.8152 15.6009,16.6112 15.6739,18.8782 C15.6959,19.4312 16.9349,21.4472 17.9299,23.0672 C20.6709,27.5292 24.0819,33.0812 22.2649,36.4812 C21.4289,38.0462 19.6299,38.8922 16.9169,38.9962 C16.8649,38.9992 16.8139,39.0002 16.7619,39.0002" id="Fill-3" fill="#201820" mask="url(#mask-2)"></path>
                </g>
                <path d="M16.9786,27.7433 C16.9606,27.7433 16.9436,27.7443 16.9276,27.7473 C16.7136,27.7853 16.4756,28.1063 16.3196,28.5633 C16.0896,29.2423 16.0506,30.1543 16.2136,31.0663 C16.3766,31.9783 16.7296,32.8203 17.1816,33.3763 C17.4856,33.7523 17.8196,33.9693 18.0336,33.9313 C18.2476,33.8933 18.4856,33.5733 18.6416,33.1153 C18.8716,32.4363 18.9106,31.5243 18.7476,30.6133 L18.7476,30.6123 C18.5836,29.7013 18.2316,28.8593 17.7806,28.3023 C17.4996,27.9553 17.1916,27.7433 16.9786,27.7433 M17.9856,35.9353 C17.1506,35.9353 16.3096,35.4773 15.6276,34.6363 C14.9606,33.8133 14.4696,32.6713 14.2456,31.4183 C14.0206,30.1663 14.0856,28.9233 14.4266,27.9203 C14.8306,26.7313 15.6136,25.9513 16.5756,25.7793 C17.5356,25.6063 18.5416,26.0673 19.3336,27.0423 C20.0006,27.8653 20.4926,29.0083 20.7156,30.2613 C20.9396,31.5133 20.8756,32.7553 20.5346,33.7593 C20.1306,34.9483 19.3476,35.7283 18.3856,35.9003 C18.2526,35.9243 18.1196,35.9353 17.9856,35.9353" id="Fill-8" fill="#201820"></path>
                <path d="M11.1895,30.9122 C11.1765,30.9122 11.1645,30.9132 11.1525,30.9152 C10.9155,30.9572 10.6365,31.4782 10.7595,32.1672 C10.8825,32.8552 11.3165,33.2412 11.5625,33.2052 C11.7995,33.1622 12.0785,32.6412 11.9555,31.9532 C11.8375,31.2992 11.4335,30.9122 11.1895,30.9122 M11.5155,35.2092 C10.2295,35.2092 9.0745,34.1022 8.7915,32.5192 C8.4795,30.7732 9.3615,29.2042 10.8005,28.9462 C12.2355,28.6892 13.6115,29.8552 13.9235,31.6012 L13.9235,31.6012 C14.2355,33.3472 13.3535,34.9162 11.9145,35.1742 C11.7805,35.1982 11.6475,35.2092 11.5155,35.2092" id="Fill-12" fill="#201820"></path>
                <path d="M7.0733,33.7291 C7.0273,33.7291 6.9813,33.7331 6.9343,33.7411 C6.7303,33.7781 6.5523,33.8921 6.4333,34.0621 C6.3143,34.2331 6.2693,34.4401 6.3053,34.6451 C6.3423,34.8491 6.4563,35.0271 6.6273,35.1461 C6.7973,35.2641 7.0043,35.3091 7.2083,35.2731 C7.4133,35.2371 7.5913,35.1231 7.7103,34.9521 C7.8293,34.7821 7.8743,34.5751 7.8383,34.3701 C7.8013,34.1661 7.6873,33.9881 7.5163,33.8691 C7.3853,33.7771 7.2313,33.7291 7.0733,33.7291 M7.0703,37.2861 C5.7513,37.2861 4.5773,36.3401 4.3373,34.9971 C4.2063,34.2661 4.3683,33.5291 4.7923,32.9191 C5.2163,32.3111 5.8523,31.9031 6.5833,31.7721 C7.3143,31.6441 8.0513,31.8041 8.6593,32.2281 C9.2683,32.6521 9.6763,33.2881 9.8063,34.0191 C9.9373,34.7491 9.7753,35.4861 9.3513,36.0951 C8.9273,36.7041 8.2913,37.1121 7.5603,37.2421 C7.3963,37.2711 7.2323,37.2861 7.0703,37.2861" id="Fill-16" fill="#201820"></path>
                <path d="M3.5679,37.9606 C3.5529,37.9606 3.5369,37.9616 3.5209,37.9646 C3.3809,37.9896 3.2869,38.1256 3.3119,38.2656 C3.3269,38.3526 3.3789,38.4036 3.4189,38.4316 C3.4589,38.4606 3.5249,38.4896 3.6119,38.4746 C3.7519,38.4496 3.8459,38.3146 3.8209,38.1746 L3.8209,38.1736 C3.8049,38.0866 3.7549,38.0356 3.7139,38.0076 C3.6819,37.9846 3.6319,37.9606 3.5679,37.9606 M3.5659,40.4786 C2.4929,40.4786 1.5379,39.7096 1.3429,38.6176 C1.1239,37.3916 1.9429,36.2156 3.1689,35.9966 C3.7619,35.8906 4.3619,36.0216 4.8569,36.3666 C5.3529,36.7106 5.6839,37.2286 5.7899,37.8216 C6.0089,39.0476 5.1909,40.2236 3.9639,40.4426 C3.8309,40.4666 3.6969,40.4786 3.5659,40.4786" id="Fill-20" fill="#201820"></path>
                <path d="M2.9161,42.3219 L1.9321,42.4979 C1.9361,42.5169 1.9541,42.5329 1.9711,42.5259 L2.9161,42.3219 Z M1.9621,44.4579 C1.5641,44.4579 1.1761,44.3369 0.8421,44.1049 C0.4111,43.8049 0.1231,43.3549 0.0311,42.8379 C-0.1599,41.7719 0.5531,40.7489 1.6191,40.5569 C2.6861,40.3669 3.7091,41.0789 3.9001,42.1459 C4.0911,43.2129 3.3781,44.2369 2.3121,44.4269 C2.1951,44.4479 2.0781,44.4579 1.9621,44.4579 L1.9621,44.4579 Z" id="Fill-24" fill="#201820"></path>
                <path d="M39.7103,42.909 C28.9023,48.465 33.6383,27.84 32.2583,25.198 C29.3063,19.546 20.5483,21.442 22.6873,13.548 C25.4073,3.509 42.0723,9.372 42.1353,18.753 C42.1423,23.077 44.7493,40.318 39.7103,42.909 Z" id="Fill-26" fill="url(#linearGradient-3)"></path>
                <path d="M29.8697,9.3116 C27.7637,9.3116 24.6827,10.0046 23.6527,13.8096 C22.6017,17.6866 24.3797,18.5486 27.3247,19.9766 C29.4177,20.9896 31.7887,22.1396 33.1447,24.7346 C33.6207,25.6466 33.5807,27.3366 33.4627,30.4946 C33.3037,34.7146 33.0637,41.0926 35.3477,42.5456 C36.2027,43.0896 37.5157,42.9126 39.2537,42.0196 C42.7017,40.2466 41.8027,28.4056 41.3697,22.7156 C41.2397,21.0046 41.1377,19.6536 41.1357,18.7576 C41.1007,13.9266 35.9467,10.0166 31.1517,9.3946 C30.8047,9.3496 30.3637,9.3116 29.8697,9.3116 M36.4917,44.8526 C35.6637,44.8526 34.9227,44.6456 34.2737,44.2326 C31.0217,42.1636 31.2667,35.6516 31.4637,30.4186 C31.5357,28.5196 31.6237,26.1546 31.3717,25.6606 C30.3227,23.6506 28.3547,22.6976 26.4527,21.7756 C23.5387,20.3646 20.2377,18.7646 21.7217,13.2866 C22.8737,9.0376 26.5897,6.7916 31.4097,7.4116 C37.0167,8.1386 43.0947,12.6786 43.1357,18.7466 L43.1357,18.7516 C43.1367,19.5726 43.2427,20.9586 43.3637,22.5636 C44.0887,32.1036 44.4387,41.6026 40.1677,43.7976 C38.8007,44.5006 37.5727,44.8526 36.4917,44.8526" id="Fill-28" fill="#201820"></path>
                <path d="M18.3838,6.8097 C19.1388,8.9687 20.7168,10.3807 21.9088,9.9647 C23.1018,9.5477 23.4558,7.4597 22.7018,5.3007 C21.9468,3.1417 20.3688,1.7297 19.1758,2.1457 C17.9838,2.5627 17.6298,4.6507 18.3838,6.8097" id="Fill-30" fill="#5CB0E2"></path>
                <path d="M19.3277,6.4796 C19.9717,8.3196 21.1527,9.1676 21.5797,9.0206 C22.0077,8.8706 22.4007,7.4696 21.7577,5.6306 C21.1147,3.7916 19.9357,2.9526 19.5057,3.0896 C19.0777,3.2396 18.6847,4.6406 19.3277,6.4796 M21.4667,11.0396 C19.9027,11.0396 18.2687,9.5106 17.4397,7.1396 C16.4737,4.3736 17.0777,1.8206 18.8467,1.2026 C20.6187,0.5836 22.6787,2.2056 23.6457,4.9706 C24.6127,7.7376 24.0077,10.2906 22.2397,10.9086 C21.9867,10.9966 21.7267,11.0396 21.4667,11.0396" id="Fill-32" fill="#201820"></path>
                <path d="M24.9595,4.6422 C25.3535,5.7702 26.3525,6.4472 27.1895,6.1542 C28.0275,5.8612 28.3875,4.7092 27.9935,3.5812 C27.5995,2.4542 26.6005,1.7772 25.7625,2.0702 C24.9245,2.3632 24.5645,3.5152 24.9595,4.6422" id="Fill-34" fill="#5CB0E2"></path>
                <g id="Group-38" transform="translate(23.000000, 0.358500)">
                    <mask id="mask-5" fill="white">
                        <use xlink:href="#path-4"></use>
                    </mask>
                    <g id="Clip-37"></g>
                    <path d="M3.169,2.6436 C3.141,2.6436 3.115,2.6476 3.092,2.6556 C2.996,2.6886 2.907,2.8116 2.854,2.9826 C2.767,3.2606 2.785,3.6146 2.903,3.9536 L2.903,3.9546 C3.022,4.2926 3.228,4.5806 3.469,4.7446 C3.541,4.7926 3.724,4.8986 3.86,4.8516 C3.957,4.8176 4.045,4.6956 4.099,4.5246 C4.186,4.2466 4.168,3.8926 4.049,3.5526 C3.842,2.9596 3.418,2.6436 3.169,2.6436 M3.788,6.8626 C3.298,6.8626 2.798,6.7056 2.347,6.4006 C1.75,5.9956 1.276,5.3606 1.016,4.6136 C0.754,3.8676 0.729,3.0766 0.944,2.3866 C1.189,1.6026 1.732,1.0126 2.432,0.7676 C3.812,0.2876 5.353,1.2196 5.937,2.8936 C6.198,3.6406 6.223,4.4316 6.008,5.1206 C5.763,5.9046 5.221,6.4946 4.52,6.7396 C4.283,6.8226 4.037,6.8626 3.788,6.8626" id="Fill-36" fill="#201820" mask="url(#mask-5)"></path>
                </g>
                <path d="M29.7325,4.7267 C30.0565,5.6537 31.0705,6.1427 31.9985,5.8187 C32.9255,5.4947 33.4145,4.4797 33.0895,3.5527 C32.7665,2.6257 31.7515,2.1377 30.8245,2.4607 C29.8975,2.7857 29.4085,3.7997 29.7325,4.7267" id="Fill-39" fill="#5CB0E2"></path>
                <path d="M30.6763,4.3966 C30.7453,4.5926 30.8853,4.7506 31.0733,4.8406 C31.2603,4.9316 31.4723,4.9436 31.6683,4.8746 C31.8643,4.8056 32.0223,4.6656 32.1123,4.4776 C32.2023,4.2906 32.2143,4.0796 32.1463,3.8826 C32.0053,3.4786 31.5623,3.2656 31.1543,3.4046 C30.7493,3.5466 30.5353,3.9916 30.6763,4.3966 M31.4133,6.9176 C30.2653,6.9176 29.1883,6.2006 28.7883,5.0566 C28.7883,5.0566 28.7883,5.0566 28.7883,5.0566 C28.2833,3.6106 29.0493,2.0226 30.4943,1.5176 C31.1953,1.2716 31.9483,1.3146 32.6173,1.6376 C33.2863,1.9596 33.7893,2.5226 34.0333,3.2236 C34.5393,4.6686 33.7743,6.2566 32.3283,6.7626 C32.0263,6.8686 31.7173,6.9176 31.4133,6.9176" id="Fill-41" fill="#201820"></path>
                <path d="M35.0997,6.0675 C35.3287,6.7235 36.0467,7.0695 36.7037,6.8405 C37.3597,6.6105 37.7057,5.8935 37.4757,5.2365 C37.2467,4.5805 36.5287,4.2345 35.8727,4.4635 C35.2167,4.6935 34.8707,5.4115 35.0997,6.0675" id="Fill-43" fill="#5CB0E2"></path>
                <path d="M36.044,5.7379 C36.073,5.8209 36.132,5.8639 36.176,5.8849 C36.219,5.9049 36.288,5.9259 36.373,5.8969 C36.457,5.8669 36.5,5.8089 36.521,5.7639 C36.542,5.7199 36.562,5.6509 36.532,5.5669 C36.485,5.4319 36.337,5.3579 36.202,5.4079 C36.068,5.4549 35.997,5.6029 36.044,5.7379 M36.29,7.9109 C35.357,7.9109 34.481,7.3279 34.156,6.3979 L34.155,6.3969 C33.745,5.2209 34.368,3.9309 35.543,3.5199 C36.716,3.1079 38.008,3.7309 38.42,4.9069 C38.619,5.4759 38.585,6.0899 38.323,6.6329 C38.061,7.1759 37.603,7.5849 37.033,7.7839 C36.788,7.8699 36.537,7.9109 36.29,7.9109" id="Fill-45" fill="#201820"></path>
                <path d="M39.2491,8.5445 C39.4251,9.0475 39.9761,9.3135 40.4791,9.1375 C40.9821,8.9615 41.2481,8.4105 41.0721,7.9075 C40.8951,7.4045 40.3451,7.1385 39.8421,7.3145 C39.3381,7.4905 39.0731,8.0415 39.2491,8.5445" id="Fill-47" fill="#5CB0E2"></path>
                <path d="M40.1588,10.192 C39.8668,10.192 39.5778,10.127 39.3068,9.997 C38.8338,9.769 38.4778,9.37 38.3048,8.874 C37.9478,7.852 38.4898,6.729 39.5118,6.371 C40.5368,6.014 41.6578,6.555 42.0158,7.577 C42.1888,8.073 42.1588,8.607 41.9308,9.079 C41.7028,9.552 41.3048,9.908 40.8088,10.082 C40.5968,10.155 40.3778,10.192 40.1588,10.192" id="Fill-49" fill="#201820"></path>
            </g>
        </g>
    </g>
</svg>