<?xml version="1.0" encoding="UTF-8"?>
<svg width="63px" height="74px" viewBox="0 0 63 74" version="1.1" xmlns="http://www.w3.org/2000/svg" xmlns:xlink="http://www.w3.org/1999/xlink">
    <!-- Generator: Sketch 56.3 (81716) - https://sketch.com -->
    <title>icon-bad-credit</title>
    <desc>Created with Sketch.</desc>
    <defs>
        <polygon id="path-1" points="0 0.0004 62.7183 0.0004 62.7183 73.2324 0 73.2324"></polygon>
        <linearGradient x1="9.65606812%" y1="61.0481185%" x2="87.5404108%" y2="61.0481185%" id="linearGradient-3">
            <stop stop-color="#E61978" offset="0%"></stop>
            <stop stop-color="#993894" offset="100%"></stop>
        </linearGradient>
        <linearGradient x1="9.65606812%" y1="61.0481185%" x2="87.5404108%" y2="61.0481185%" id="linearGradient-4">
            <stop stop-color="#E61978" offset="0%"></stop>
            <stop stop-color="#993894" offset="100%"></stop>
        </linearGradient>
        <linearGradient x1="9.65606812%" y1="61.0481185%" x2="87.5404108%" y2="61.0481185%" id="linearGradient-5">
            <stop stop-color="#E61978" offset="0%"></stop>
            <stop stop-color="#993894" offset="100%"></stop>
        </linearGradient>
        <linearGradient x1="9.65606812%" y1="61.0481185%" x2="87.5404108%" y2="61.0481185%" id="linearGradient-6">
            <stop stop-color="#E61978" offset="0%"></stop>
            <stop stop-color="#993894" offset="100%"></stop>
        </linearGradient>
    </defs>
    <g id="Page-1" stroke="none" stroke-width="1" fill="none" fill-rule="evenodd">
        <g id="Assets-Playground" transform="translate(-1052.000000, -1812.000000)">
            <g id="icon-bad-credit" transform="translate(1052.000000, 1812.000000)">
                <mask id="mask-2" fill="white">
                    <use xlink:href="#path-1"></use>
                </mask>
                <g id="Clip-2"></g>
                <path d="M2,71.2324 L48.689,71.2324 L48.689,42.3624 L2,42.3624 L2,71.2324 Z M49.689,73.2324 L1,73.2324 C0.447,73.2324 0,72.7854 0,72.2324 L0,41.3624 C0,40.8094 0.447,40.3624 1,40.3624 L49.689,40.3624 C50.242,40.3624 50.689,40.8094 50.689,41.3624 L50.689,72.2324 C50.689,72.7854 50.242,73.2324 49.689,73.2324 L49.689,73.2324 Z" id="Fill-1" fill="#201820" mask="url(#mask-2)"></path>
                <polygon id="Fill-3" fill="#201820" mask="url(#mask-2)" points="1 53.7324 49.689 53.7324 49.689 47.5194 1 47.5194"></polygon>
                <path d="M17.3018,59.6904 C17.3018,60.4504 16.6868,61.0654 15.9268,61.0654 C15.1678,61.0654 14.5518,60.4504 14.5518,59.6904 C14.5518,58.9304 15.1678,58.3154 15.9268,58.3154 C16.6868,58.3154 17.3018,58.9304 17.3018,59.6904" id="Fill-4" fill="#201820" mask="url(#mask-2)"></path>
                <path d="M17.8008,60.6904 C17.5908,60.6904 17.3788,60.6254 17.1978,60.4884 L13.9478,58.0304 C13.5078,57.6974 13.4208,57.0694 13.7538,56.6284 C14.0878,56.1874 14.7138,56.1004 15.1548,56.4344 L18.4048,58.8924 C18.8458,59.2254 18.9328,59.8534 18.5998,60.2944 C18.4028,60.5534 18.1038,60.6904 17.8008,60.6904" id="Fill-5" fill="#201820" mask="url(#mask-2)"></path>
                <path d="M34.0518,59.6904 C34.0518,60.4504 34.6678,61.0654 35.4268,61.0654 C36.1868,61.0654 36.8018,60.4504 36.8018,59.6904 C36.8018,58.9304 36.1868,58.3154 35.4268,58.3154 C34.6678,58.3154 34.0518,58.9304 34.0518,59.6904" id="Fill-6" fill="#201820" mask="url(#mask-2)"></path>
                <path d="M33.5527,60.6904 C33.2497,60.6904 32.9507,60.5534 32.7537,60.2944 C32.4207,59.8534 32.5077,59.2254 32.9487,58.8924 L36.1987,56.4344 C36.6397,56.1024 37.2647,56.1874 37.5997,56.6284 C37.9327,57.0694 37.8457,57.6974 37.4057,58.0304 L34.1557,60.4884 C33.9747,60.6244 33.7627,60.6904 33.5527,60.6904" id="Fill-7" fill="#201820" mask="url(#mask-2)"></path>
                <path d="M22.3438,64.8984 C22.0498,64.8984 21.8018,65.1464 21.8018,65.4404 C21.8018,65.7344 22.0498,65.9824 22.3438,65.9824 L28.5108,65.9824 C28.8038,65.9824 29.0518,65.7344 29.0518,65.4404 C29.0518,65.1464 28.8038,64.8984 28.5108,64.8984 L22.3438,64.8984 Z M28.5108,67.9824 L22.3438,67.9824 C20.9428,67.9824 19.8018,66.8414 19.8018,65.4404 C19.8018,64.0394 20.9428,62.8984 22.3438,62.8984 L28.5108,62.8984 C29.9118,62.8984 31.0518,64.0394 31.0518,65.4404 C31.0518,66.8414 29.9118,67.9824 28.5108,67.9824 L28.5108,67.9824 Z" id="Fill-8" fill="#201820" mask="url(#mask-2)"></path>
                <path d="M49.208,12.7187 L27.476,55.9817 C27.476,55.9817 20.436,53.2317 23.612,46.4817 C26.789,39.7317 37.789,18.6067 37.789,18.6067 C37.789,18.6067 40.539,18.8567 42.039,17.8567 C43.539,16.8567 45.854,12.8037 45.854,12.8037 L47.65,9.5387" id="Fill-9" fill="url(#linearGradient-3)" mask="url(#mask-2)"></path>
                <path d="M27.4756,56.9814 C27.3536,56.9814 27.2306,56.9594 27.1116,56.9134 C26.9666,56.8564 23.5366,55.4854 22.2576,52.2784 C21.5036,50.3854 21.6556,48.2924 22.7066,46.0554 C25.8566,39.3654 36.7916,18.3564 36.9026,18.1444 C37.0886,17.7864 37.4826,17.5824 37.8776,17.6104 C38.5496,17.6694 40.5016,17.6794 41.4846,17.0244 C42.4326,16.3924 44.1356,13.7954 44.9866,12.3074 L46.7746,9.0564 C47.0396,8.5724 47.6486,8.3954 48.1326,8.6624 C48.6166,8.9284 48.7926,9.5364 48.5266,10.0204 L46.7306,13.2854 C46.4736,13.7354 44.2426,17.5894 42.5936,18.6884 C41.2986,19.5524 39.4156,19.6534 38.3806,19.6354 C36.6066,23.0494 27.3586,40.8704 24.5176,46.9074 C23.7096,48.6224 23.5756,50.1794 24.1166,51.5374 C24.7456,53.1164 26.1366,54.1284 27.0286,54.6434 L48.3146,12.2704 C48.5626,11.7764 49.1616,11.5774 49.6576,11.8254 C50.1506,12.0734 50.3496,12.6744 50.1016,13.1674 L28.3696,56.4304 C28.1956,56.7774 27.8436,56.9814 27.4756,56.9814" id="Fill-10" fill="#201820" mask="url(#mask-2)"></path>
                <polygon id="Fill-11" fill="url(#linearGradient-4)" mask="url(#mask-2)" points="30.1953 13.5351 31.5353 9.8831 35.2243 16.6071 37.7893 18.6061 35.2243 23.3261"></polygon>
                <path d="M61.7188,8.1064 C61.7188,12.0314 58.5368,15.2124 54.6128,15.2124 C50.6878,15.2124 47.5058,12.0314 47.5058,8.1064 C47.5058,4.1814 50.6878,1.0004 54.6128,1.0004 C58.5368,1.0004 61.7188,4.1814 61.7188,8.1064" id="Fill-12" fill="url(#linearGradient-5)" mask="url(#mask-2)"></path>
                <path d="M54.6123,2 C51.2453,2 48.5063,4.739 48.5063,8.106 C48.5063,11.474 51.2453,14.213 54.6123,14.213 C57.9793,14.213 60.7183,11.474 60.7183,8.106 C60.7183,4.739 57.9793,2 54.6123,2 M54.6123,16.213 C50.1423,16.213 46.5063,12.576 46.5063,8.106 C46.5063,3.637 50.1423,0 54.6123,0 C59.0823,0 62.7183,3.637 62.7183,8.106 C62.7183,12.576 59.0823,16.213 54.6123,16.213" id="Fill-13" fill="#201820" mask="url(#mask-2)"></path>
                <path d="M31.3447,8.1064 C31.3447,12.0314 28.1627,15.2124 24.2387,15.2124 C20.3137,15.2124 17.1317,12.0314 17.1317,8.1064 C17.1317,4.1814 20.3137,1.0004 24.2387,1.0004 C28.1627,1.0004 31.3447,4.1814 31.3447,8.1064" id="Fill-14" fill="url(#linearGradient-5)" mask="url(#mask-2)"></path>
                <path d="M24.2383,2 C20.8713,2 18.1323,4.739 18.1323,8.106 C18.1323,11.474 20.8713,14.213 24.2383,14.213 C27.6053,14.213 30.3443,11.474 30.3443,8.106 C30.3443,4.739 27.6053,2 24.2383,2 M24.2383,16.213 C19.7683,16.213 16.1323,12.576 16.1323,8.106 C16.1323,3.637 19.7683,0 24.2383,0 C28.7083,0 32.3443,3.637 32.3443,8.106 C32.3443,12.576 28.7083,16.213 24.2383,16.213" id="Fill-15" fill="#201820" mask="url(#mask-2)"></path>
                <path d="M28.1006,8.1064 C28.1006,10.2394 26.3716,11.9694 24.2386,11.9694 C22.1046,11.9694 20.3746,10.2394 20.3746,8.1064 C20.3746,5.9734 22.1046,4.2434 24.2386,4.2434 C26.3716,4.2434 28.1006,5.9734 28.1006,8.1064" id="Fill-16" fill="#FEFEFE" mask="url(#mask-2)"></path>
                <path d="M24.2383,5.2436 C22.6593,5.2436 21.3753,6.5276 21.3753,8.1066 C21.3753,9.6846 22.6593,10.9696 24.2383,10.9696 C25.8163,10.9696 27.1003,9.6846 27.1003,8.1066 C27.1003,6.5276 25.8163,5.2436 24.2383,5.2436 M24.2383,12.9696 C21.5563,12.9696 19.3753,10.7876 19.3753,8.1066 C19.3753,5.4256 21.5563,3.2436 24.2383,3.2436 C26.9193,3.2436 29.1003,5.4256 29.1003,8.1066 C29.1003,10.7876 26.9193,12.9696 24.2383,12.9696" id="Fill-17" fill="#201820" mask="url(#mask-2)"></path>
                <path d="M58.4756,8.1064 C58.4756,10.2394 56.7466,11.9694 54.6126,11.9694 C52.4786,11.9694 50.7486,10.2394 50.7486,8.1064 C50.7486,5.9734 52.4786,4.2434 54.6126,4.2434 C56.7466,4.2434 58.4756,5.9734 58.4756,8.1064" id="Fill-18" fill="#FEFEFE" mask="url(#mask-2)"></path>
                <path d="M54.6123,5.2436 C53.0333,5.2436 51.7493,6.5276 51.7493,8.1066 C51.7493,9.6846 53.0333,10.9696 54.6123,10.9696 C56.1913,10.9696 57.4753,9.6846 57.4753,8.1066 C57.4753,6.5276 56.1913,5.2436 54.6123,5.2436 M54.6123,12.9696 C51.9303,12.9696 49.7493,10.7876 49.7493,8.1066 C49.7493,5.4256 51.9303,3.2436 54.6123,3.2436 C57.2943,3.2436 59.4753,5.4256 59.4753,8.1066 C59.4753,10.7876 57.2943,12.9696 54.6123,12.9696" id="Fill-19" fill="#201820" mask="url(#mask-2)"></path>
                <path d="M43.7646,23.5464 C47.2146,30.2164 53.1846,41.8064 55.3846,46.4864 C58.5646,53.2364 51.5246,55.9864 51.5246,55.9864 L49.6896,52.3354 L49.6896,41.3624 L44.1756,41.3624 L39.4936,32.0464" id="Fill-20" fill="url(#linearGradient-6)" mask="url(#mask-2)"></path>
                <path d="M51.5244,56.9863 C51.1564,56.9863 50.8054,56.7823 50.6304,56.4353 L48.7954,52.7843 C48.7254,52.6443 48.6894,52.4913 48.6894,52.3353 L48.6894,42.3623 L44.1754,42.3623 C43.7974,42.3623 43.4524,42.1493 43.2824,41.8113 L38.6004,32.4963 C38.3524,32.0033 38.5514,31.4013 39.0454,31.1533 C39.5434,30.9063 40.1404,31.1043 40.3874,31.5973 L44.7924,40.3623 L49.6894,40.3623 C50.2424,40.3623 50.6894,40.8093 50.6894,41.3623 L50.6894,52.0973 L51.9694,54.6453 C52.8664,54.1263 54.2654,53.1033 54.8874,51.5313 C55.4224,50.1763 55.2854,48.6223 54.4804,46.9123 C52.8594,43.4653 48.9564,35.7583 42.8764,24.0063 C42.6234,23.5153 42.8144,22.9123 43.3054,22.6583 C43.7954,22.4023 44.3994,22.5963 44.6534,23.0873 C50.7434,34.8623 54.6594,42.5913 56.2904,46.0603 C57.3424,48.2973 57.4954,50.3903 56.7404,52.2833 C55.4624,55.4903 52.0334,56.8613 51.8884,56.9183 C51.7694,56.9643 51.6454,56.9863 51.5244,56.9863" id="Fill-21" fill="#201820" mask="url(#mask-2)"></path>
                <path d="M39.5049,19.5967 L39.4839,19.5967 C38.1299,19.4867 37.1159,19.1797 36.3889,18.6807 C34.7499,17.5887 32.5249,13.7377 32.2759,13.3027 L30.4689,10.0187 C30.2019,9.5347 30.3789,8.9267 30.8619,8.6607 C31.3479,8.3937 31.9549,8.5707 32.2209,9.0547 L34.0209,12.3247 C34.8609,13.7977 36.5609,16.3927 37.5089,17.0247 C37.9509,17.3277 38.6589,17.5237 39.5669,17.5997 C40.1019,17.6447 40.5169,18.1027 40.4939,18.6387 C40.4719,19.1737 40.0409,19.5967 39.5049,19.5967" id="Fill-22" fill="#201820" mask="url(#mask-2)"></path>
                <path d="M35.2256,24.5464 C34.8596,24.5464 34.5066,24.3444 34.3306,23.9954 L28.8906,13.1654 C28.6426,12.6714 28.8416,12.0704 29.3346,11.8224 C29.8316,11.5754 30.4296,11.7744 30.6776,12.2674 L36.1186,23.0974 C36.3666,23.5904 36.1666,24.1924 35.6736,24.4404 C35.5296,24.5124 35.3756,24.5464 35.2256,24.5464" id="Fill-23" fill="#201820" mask="url(#mask-2)"></path>
                <path d="M27.2881,50.6689 C27.1381,50.6689 26.9851,50.6349 26.8421,50.5639 C26.3481,50.3159 26.1471,49.7159 26.3941,49.2219 L32.8321,36.3469 C33.0801,35.8529 33.6801,35.6529 34.1741,35.8989 C34.6681,36.1469 34.8681,36.7469 34.6211,37.2409 L28.1841,50.1159 C28.0081,50.4669 27.6551,50.6689 27.2881,50.6689" id="Fill-24" fill="#201820" mask="url(#mask-2)"></path>
                <path d="M39.5332,22.9941 C39.2262,22.9941 38.9762,23.2441 38.9762,23.5501 C38.9762,23.8571 39.2262,24.1061 39.5332,24.1061 C39.8402,24.1061 40.0892,23.8571 40.0892,23.5501 C40.0892,23.2441 39.8402,22.9941 39.5332,22.9941 M39.5332,25.1061 C38.6752,25.1061 37.9762,24.4081 37.9762,23.5501 C37.9762,22.6921 38.6752,21.9941 39.5332,21.9941 C40.3902,21.9941 41.0892,22.6921 41.0892,23.5501 C41.0892,24.4081 40.3902,25.1061 39.5332,25.1061" id="Fill-25" fill="#201820" mask="url(#mask-2)"></path>
            </g>
        </g>
    </g>
</svg>