<?xml version="1.0" encoding="UTF-8"?>
<svg width="82px" height="46px" viewBox="0 0 82 46" version="1.1" xmlns="http://www.w3.org/2000/svg" xmlns:xlink="http://www.w3.org/1999/xlink">
    <!-- Generator: Sketch 56.3 (81716) - https://sketch.com -->
    <title>icon-transfer</title>
    <desc>Created with Sketch.</desc>
    <defs>
        <linearGradient x1="28.561154%" y1="29.555081%" x2="66.8262325%" y2="85.8513925%" id="linearGradient-1">
            <stop stop-color="#F16370" offset="0%"></stop>
            <stop stop-color="#EE629A" offset="100%"></stop>
        </linearGradient>
        <polygon id="path-2" points="0.34645 0.06 24.317 0.06 24.317 46 0.34645 46"></polygon>
    </defs>
    <g id="Page-1" stroke="none" stroke-width="1" fill="none" fill-rule="evenodd">
        <g id="Assets-Playground" transform="translate(-1185.000000, -1834.000000)">
            <g id="icon-transfer" transform="translate(1185.000000, 1833.000000)">
                <polygon id="Fill-1" fill="url(#linearGradient-1)" points="58.3467 45.9404 58.3467 35.1004 28.4267 35.1004 28.4267 15.1504 58.3467 15.1504 58.3467 2.0004 80.3177 23.9704"></polygon>
                <g id="Group-17" transform="translate(0.000000, 0.940400)">
                    <path d="M58.3467,35.1597 L28.4267,35.1597 C27.8737,35.1597 27.4267,34.7117 27.4267,34.1597 L27.4267,14.2097 C27.4267,13.6577 27.8737,13.2097 28.4267,13.2097 L58.3467,13.2097 C58.8997,13.2097 59.3467,13.6577 59.3467,14.2097 C59.3467,14.7627 58.8997,15.2097 58.3467,15.2097 L29.4267,15.2097 L29.4267,33.1597 L58.3467,33.1597 C58.8997,33.1597 59.3467,33.6077 59.3467,34.1597 C59.3467,34.7117 58.8997,35.1597 58.3467,35.1597" id="Fill-2" fill="#201820"></path>
                    <g id="Group-6" transform="translate(57.000000, 0.000000)">
                        <mask id="mask-3" fill="white">
                            <use xlink:href="#path-2"></use>
                        </mask>
                        <g id="Clip-5"></g>
                        <path d="M1.3467,46 C1.0907,46 0.8347,45.902 0.6397,45.707 C0.2487,45.316 0.2487,44.684 0.6397,44.293 L21.9037,23.03 L0.6397,1.767 C0.2487,1.376 0.2487,0.743 0.6397,0.353 C1.0307,-0.038 1.6627,-0.038 2.0537,0.353 L24.0247,22.323 C24.2117,22.51 24.3177,22.765 24.3177,23.03 C24.3177,23.295 24.2117,23.549 24.0247,23.737 L2.0537,45.707 C1.8587,45.902 1.6027,46 1.3467,46" id="Fill-4" fill="#201820" mask="url(#mask-3)"></path>
                    </g>
                    <path d="M58.3467,46 C57.7937,46 57.3467,45.552 57.3467,45 L57.3467,34.16 C57.3467,33.607 57.7937,33.16 58.3467,33.16 C58.8997,33.16 59.3467,33.607 59.3467,34.16 L59.3467,45 C59.3467,45.552 58.8997,46 58.3467,46" id="Fill-7" fill="#201820"></path>
                    <path d="M58.3467,15.21 C57.7937,15.21 57.3467,14.762 57.3467,14.21 L57.3467,1.06 C57.3467,0.507 57.7937,0.06 58.3467,0.06 C58.8997,0.06 59.3467,0.507 59.3467,1.06 L59.3467,14.21 C59.3467,14.762 58.8997,15.21 58.3467,15.21" id="Fill-9" fill="#201820"></path>
                    <path d="M21.667,15.21 L1,15.21 C0.447,15.21 0,14.762 0,14.21 C0,13.658 0.447,13.21 1,13.21 L21.667,13.21 C22.22,13.21 22.667,13.658 22.667,14.21 C22.667,14.762 22.22,15.21 21.667,15.21" id="Fill-11" fill="#201820"></path>
                    <path d="M21.667,22.6348 L11.334,22.6348 C10.781,22.6348 10.334,22.1868 10.334,21.6348 C10.334,21.0828 10.781,20.6348 11.334,20.6348 L21.667,20.6348 C22.22,20.6348 22.667,21.0828 22.667,21.6348 C22.667,22.1868 22.22,22.6348 21.667,22.6348" id="Fill-13" fill="#201820"></path>
                    <path d="M21.667,28.9888 L15.167,28.9888 C14.614,28.9888 14.167,28.5408 14.167,27.9888 C14.167,27.4368 14.614,26.9888 15.167,26.9888 L21.667,26.9888 C22.22,26.9888 22.667,27.4368 22.667,27.9888 C22.667,28.5408 22.22,28.9888 21.667,28.9888" id="Fill-15" fill="#201820"></path>
                </g>
            </g>
        </g>
    </g>
</svg>