<?xml version="1.0" encoding="UTF-8"?>
<svg width="47px" height="54px" viewBox="0 0 47 54" version="1.1" xmlns="http://www.w3.org/2000/svg" xmlns:xlink="http://www.w3.org/1999/xlink">
    <!-- Generator: Sketch 56.3 (81716) - https://sketch.com -->
    <title>icon-months</title>
    <desc>Created with Sketch.</desc>
    <defs>
        <linearGradient x1="85.1885169%" y1="24.6805765%" x2="100%" y2="91.1942189%" id="linearGradient-1">
            <stop stop-color="#58CAEA" offset="0%"></stop>
            <stop stop-color="#A7D6A4" offset="100%"></stop>
        </linearGradient>
        <polygon id="path-2" points="0.0002 0.55 46.45 0.55 46.45 47 0.0002 47"></polygon>
        <polygon id="path-4" points="0.5498 0.86 8.5498 0.86 8.5498 17.1699 0.5498 17.1699"></polygon>
        <polygon id="path-6" points="0.5498 0.86 8.5498 0.86 8.5498 17.1699 0.5498 17.1699"></polygon>
    </defs>
    <g id="Page-1" stroke="none" stroke-width="1" fill="none" fill-rule="evenodd">
        <g id="Assets-Playground" transform="translate(-1330.000000, -1824.000000)">
            <g id="icon-months" transform="translate(1330.000000, 1823.000000)">
                <path d="M45.4502,8.6898 L45.4502,53.1398 L1.0002,53.1398 L1.0002,8.6898 L8.5502,8.6898 L8.5502,13.3098 C8.5502,14.4098 9.4502,15.3098 10.5502,15.3098 C11.6602,15.3098 12.5502,14.4098 12.5502,13.3098 L12.5502,8.6898 L33.5502,8.6898 L33.5502,13.3098 C33.5502,14.4098 34.4502,15.3098 35.5502,15.3098 C36.6602,15.3098 37.5502,14.4098 37.5502,13.3098 L37.5502,8.6898 L45.4502,8.6898 Z" id="Fill-1" fill="url(#linearGradient-1)"></path>
                <path d="M32.5498,9.6898 L13.5498,9.6898 C12.9968,9.6898 12.5498,9.2418 12.5498,8.6898 C12.5498,8.1378 12.9968,7.6898 13.5498,7.6898 L32.5498,7.6898 C33.1028,7.6898 33.5498,8.1378 33.5498,8.6898 C33.5498,9.2418 33.1028,9.6898 32.5498,9.6898" id="Fill-3" fill="#201820"></path>
                <g id="Group-7" transform="translate(0.000000, 7.140000)">
                    <mask id="mask-3" fill="white">
                        <use xlink:href="#path-2"></use>
                    </mask>
                    <g id="Clip-6"></g>
                    <path d="M45.4502,47 L1.0002,47 C0.4472,47 0.0002,46.552 0.0002,46 L0.0002,1.55 C0.0002,0.998 0.4472,0.55 1.0002,0.55 L7.5502,0.55 C8.1022,0.55 8.5502,0.998 8.5502,1.55 C8.5502,2.102 8.1022,2.55 7.5502,2.55 L2.0002,2.55 L2.0002,45 L44.4502,45 L44.4502,2.55 L38.5502,2.55 C37.9972,2.55 37.5502,2.102 37.5502,1.55 C37.5502,0.998 37.9972,0.55 38.5502,0.55 L45.4502,0.55 C46.0032,0.55 46.4502,0.998 46.4502,1.55 L46.4502,46 C46.4502,46.552 46.0032,47 45.4502,47" id="Fill-5" fill="#201820" mask="url(#mask-3)"></path>
                </g>
                <g id="Group-10" transform="translate(6.000000, 0.140000)">
                    <mask id="mask-5" fill="white">
                        <use xlink:href="#path-4"></use>
                    </mask>
                    <g id="Clip-9"></g>
                    <path d="M6.5498,13.1699 C6.5498,14.2699 5.6598,15.1699 4.5498,15.1699 C3.4498,15.1699 2.5498,14.2699 2.5498,13.1699 L2.5498,4.8599 C2.5498,3.7499 3.4498,2.8599 4.5498,2.8599 C5.6598,2.8599 6.5498,3.7499 6.5498,4.8599 L6.5498,13.1699 Z M4.5498,0.8599 C2.3498,0.8599 0.5498,2.6499 0.5498,4.8599 L0.5498,13.1699 C0.5498,15.3699 2.3498,17.1699 4.5498,17.1699 C6.7598,17.1699 8.5498,15.3699 8.5498,13.1699 L8.5498,4.8599 C8.5498,2.6499 6.7598,0.8599 4.5498,0.8599 L4.5498,0.8599 Z" id="Fill-8" fill="#201820" mask="url(#mask-5)"></path>
                </g>
                <g id="Group-13" transform="translate(31.000000, 0.140000)">
                    <mask id="mask-7" fill="white">
                        <use xlink:href="#path-6"></use>
                    </mask>
                    <g id="Clip-12"></g>
                    <path d="M6.5498,13.1699 C6.5498,14.2699 5.6598,15.1699 4.5498,15.1699 C3.4498,15.1699 2.5498,14.2699 2.5498,13.1699 L2.5498,4.8599 C2.5498,3.7499 3.4498,2.8599 4.5498,2.8599 C5.6598,2.8599 6.5498,3.7499 6.5498,4.8599 L6.5498,13.1699 Z M4.5498,0.8599 C2.3498,0.8599 0.5498,2.6499 0.5498,4.8599 L0.5498,13.1699 C0.5498,15.3699 2.3498,17.1699 4.5498,17.1699 C6.7598,17.1699 8.5498,15.3699 8.5498,13.1699 L8.5498,4.8599 C8.5498,2.6499 6.7598,0.8599 4.5498,0.8599 L4.5498,0.8599 Z" id="Fill-11" fill="#201820" mask="url(#mask-7)"></path>
                </g>
                <path d="M18.4111,24.2259 C18.4111,25.5209 17.3611,26.5719 16.0651,26.5719 C14.7691,26.5719 13.7201,25.5209 13.7201,24.2259 C13.7201,22.9309 14.7691,21.8799 16.0651,21.8799 C17.3611,21.8799 18.4111,22.9309 18.4111,24.2259" id="Fill-14" fill="#231F20"></path>
                <path d="M25.2568,24.2259 C25.2568,25.5209 24.2068,26.5719 22.9108,26.5719 C21.6158,26.5719 20.5658,25.5209 20.5658,24.2259 C20.5658,22.9309 21.6158,21.8799 22.9108,21.8799 C24.2068,21.8799 25.2568,22.9309 25.2568,24.2259" id="Fill-16" fill="#231F20"></path>
                <path d="M31.7324,24.2259 C31.7324,25.5209 30.6814,26.5719 29.3864,26.5719 C28.0904,26.5719 27.0414,25.5209 27.0414,24.2259 C27.0414,22.9309 28.0904,21.8799 29.3864,21.8799 C30.6814,21.8799 31.7324,22.9309 31.7324,24.2259" id="Fill-18" fill="#231F20"></path>
                <path d="M38.7324,24.2259 C38.7324,25.5209 37.6814,26.5719 36.3864,26.5719 C35.0904,26.5719 34.0414,25.5209 34.0414,24.2259 C34.0414,22.9309 35.0904,21.8799 36.3864,21.8799 C37.6814,21.8799 38.7324,22.9309 38.7324,24.2259" id="Fill-20" fill="#231F20"></path>
                <path d="M11.2451,31.2259 C11.2451,32.5209 10.1941,33.5719 8.8981,33.5719 C7.6031,33.5719 6.5531,32.5209 6.5531,31.2259 C6.5531,29.9309 7.6031,28.8799 8.8981,28.8799 C10.1941,28.8799 11.2451,29.9309 11.2451,31.2259" id="Fill-22" fill="#231F20"></path>
                <path d="M18.4111,31.2259 C18.4111,32.5209 17.3611,33.5719 16.0651,33.5719 C14.7691,33.5719 13.7201,32.5209 13.7201,31.2259 C13.7201,29.9309 14.7691,28.8799 16.0651,28.8799 C17.3611,28.8799 18.4111,29.9309 18.4111,31.2259" id="Fill-24" fill="#231F20"></path>
                <path d="M25.2568,31.2259 C25.2568,32.5209 24.2068,33.5719 22.9108,33.5719 C21.6158,33.5719 20.5658,32.5209 20.5658,31.2259 C20.5658,29.9309 21.6158,28.8799 22.9108,28.8799 C24.2068,28.8799 25.2568,29.9309 25.2568,31.2259" id="Fill-26" fill="#231F20"></path>
                <path d="M31.7324,31.2259 C31.7324,32.5209 30.6814,33.5719 29.3864,33.5719 C28.0904,33.5719 27.0414,32.5209 27.0414,31.2259 C27.0414,29.9309 28.0904,28.8799 29.3864,28.8799 C30.6814,28.8799 31.7324,29.9309 31.7324,31.2259" id="Fill-28" fill="#231F20"></path>
                <path d="M38.7324,31.2259 C38.7324,32.5209 37.6814,33.5719 36.3864,33.5719 C35.0904,33.5719 34.0414,32.5209 34.0414,31.2259 C34.0414,29.9309 35.0904,28.8799 36.3864,28.8799 C37.6814,28.8799 38.7324,29.9309 38.7324,31.2259" id="Fill-30" fill="#231F20"></path>
                <path d="M11.2451,38.2259 C11.2451,39.5209 10.1941,40.5719 8.8981,40.5719 C7.6031,40.5719 6.5531,39.5209 6.5531,38.2259 C6.5531,36.9309 7.6031,35.8799 8.8981,35.8799 C10.1941,35.8799 11.2451,36.9309 11.2451,38.2259" id="Fill-32" fill="#231F20"></path>
                <path d="M18.4111,38.2259 C18.4111,39.5209 17.3611,40.5719 16.0651,40.5719 C14.7691,40.5719 13.7201,39.5209 13.7201,38.2259 C13.7201,36.9309 14.7691,35.8799 16.0651,35.8799 C17.3611,35.8799 18.4111,36.9309 18.4111,38.2259" id="Fill-34" fill="#231F20"></path>
                <path d="M25.2568,38.2259 C25.2568,39.5209 24.2068,40.5719 22.9108,40.5719 C21.6158,40.5719 20.5658,39.5209 20.5658,38.2259 C20.5658,36.9309 21.6158,35.8799 22.9108,35.8799 C24.2068,35.8799 25.2568,36.9309 25.2568,38.2259" id="Fill-36" fill="#231F20"></path>
                <path d="M31.7324,38.2259 C31.7324,39.5209 30.6814,40.5719 29.3864,40.5719 C28.0904,40.5719 27.0414,39.5209 27.0414,38.2259 C27.0414,36.9309 28.0904,35.8799 29.3864,35.8799 C30.6814,35.8799 31.7324,36.9309 31.7324,38.2259" id="Fill-38" fill="#231F20"></path>
                <path d="M38.7324,38.2259 C38.7324,39.5209 37.6814,40.5719 36.3864,40.5719 C35.0904,40.5719 34.0414,39.5209 34.0414,38.2259 C34.0414,36.9309 35.0904,35.8799 36.3864,35.8799 C37.6814,35.8799 38.7324,36.9309 38.7324,38.2259" id="Fill-40" fill="#231F20"></path>
                <path d="M11.2451,45.2259 C11.2451,46.5209 10.1941,47.5719 8.8981,47.5719 C7.6031,47.5719 6.5531,46.5209 6.5531,45.2259 C6.5531,43.9309 7.6031,42.8799 8.8981,42.8799 C10.1941,42.8799 11.2451,43.9309 11.2451,45.2259" id="Fill-42" fill="#231F20"></path>
                <path d="M18.4111,45.2259 C18.4111,46.5209 17.3611,47.5719 16.0651,47.5719 C14.7691,47.5719 13.7201,46.5209 13.7201,45.2259 C13.7201,43.9309 14.7691,42.8799 16.0651,42.8799 C17.3611,42.8799 18.4111,43.9309 18.4111,45.2259" id="Fill-44" fill="#231F20"></path>
                <path d="M25.2568,45.2259 C25.2568,46.5209 24.2068,47.5719 22.9108,47.5719 C21.6158,47.5719 20.5658,46.5209 20.5658,45.2259 C20.5658,43.9309 21.6158,42.8799 22.9108,42.8799 C24.2068,42.8799 25.2568,43.9309 25.2568,45.2259" id="Fill-46" fill="#231F20"></path>
                <path d="M31.7324,45.2259 C31.7324,46.5209 30.6814,47.5719 29.3864,47.5719 C28.0904,47.5719 27.0414,46.5209 27.0414,45.2259 C27.0414,43.9309 28.0904,42.8799 29.3864,42.8799 C30.6814,42.8799 31.7324,43.9309 31.7324,45.2259" id="Fill-48" fill="#231F20"></path>
            </g>
        </g>
    </g>
</svg>