<?xml version="1.0" encoding="UTF-8"?>
<svg width="86px" height="84px" viewBox="0 0 86 84" version="1.1" xmlns="http://www.w3.org/2000/svg" xmlns:xlink="http://www.w3.org/1999/xlink">
    <!-- Generator: Sketch 56.3 (81716) - https://sketch.com -->
    <title>icon-fill-application</title>
    <desc>Created with Sketch.</desc>
    <defs>
        <path d="M11,0.818 C4.95,0.818 0,5.767 0,11.818 L0,11.818 C0,17.868 4.95,22.818 11,22.818 L11,22.818 L52,22.818 C58.05,22.818 63,17.868 63,11.818 L63,11.818 C63,5.767 58.05,0.818 52,0.818 L52,0.818 L11,0.818 Z" id="path-1"></path>
        <linearGradient x1="9.65606812%" y1="61.0481185%" x2="87.5404108%" y2="61.0481185%" id="linearGradient-3">
            <stop stop-color="#E61978" offset="0%"></stop>
            <stop stop-color="#993894" offset="100%"></stop>
        </linearGradient>
        <polygon id="path-4" points="0.266542838 0.6507 39.958 0.6507 39.958 45.9997 0.266542838 45.9997"></polygon>
        <polygon id="path-6" points="0 84 85.958 84 85.958 0.484 0 0.484"></polygon>
    </defs>
    <g id="Page-1" stroke="none" stroke-width="1" fill="none" fill-rule="evenodd">
        <g id="Assets-Playground" transform="translate(-412.000000, -1802.000000)">
            <g id="icon-fill-application" transform="translate(412.000000, 1801.000000)">
                <g id="Group-3" transform="translate(1.000000, 57.515800)">
                    <mask id="mask-2" fill="white">
                        <use xlink:href="#path-1"></use>
                    </mask>
                    <g id="Clip-2"></g>
                    <path d="M11,0.818 C4.95,0.818 0,5.767 0,11.818 L0,11.818 C0,17.868 4.95,22.818 11,22.818 L11,22.818 L52,22.818 C58.05,22.818 63,17.868 63,11.818 L63,11.818 C63,5.767 58.05,0.818 52,0.818 L52,0.818 L11,0.818 Z" id="Fill-1" fill="url(#linearGradient-3)" mask="url(#mask-2)"></path>
                </g>
                <g id="Group-24" transform="translate(0.000000, 0.515800)">
                    <path d="M61,51.6507 L4,51.6507 C2.35,51.6507 1,50.3007 1,48.6507 L1,32.6507 C1,31.0007 2.35,29.6507 4,29.6507 L61,29.6507 C62.65,29.6507 64,31.0007 64,32.6507 L64,48.6507 C64,50.3007 62.65,51.6507 61,51.6507" id="Fill-4" fill="#FEFEFE"></path>
                    <path d="M4,30.6507 C2.897,30.6507 2,31.5477 2,32.6507 L2,48.6507 C2,49.7537 2.897,50.6507 4,50.6507 L61,50.6507 C62.103,50.6507 63,49.7537 63,48.6507 L63,32.6507 C63,31.5477 62.103,30.6507 61,30.6507 L4,30.6507 Z M61,52.6507 L4,52.6507 C1.794,52.6507 0,50.8567 0,48.6507 L0,32.6507 C0,30.4447 1.794,28.6507 4,28.6507 L61,28.6507 C63.206,28.6507 65,30.4447 65,32.6507 L65,48.6507 C65,50.8567 63.206,52.6507 61,52.6507 L61,52.6507 Z" id="Fill-6" fill="#201820"></path>
                    <path d="M61,23.4842 L4,23.4842 C2.35,23.4842 1,22.1342 1,20.4842 L1,4.4842 C1,2.8342 2.35,1.4842 4,1.4842 L61,1.4842 C62.65,1.4842 64,2.8342 64,4.4842 L64,20.4842 C64,22.1342 62.65,23.4842 61,23.4842" id="Fill-8" fill="#FEFEFE"></path>
                    <path d="M4,2.4842 C2.897,2.4842 2,3.3812 2,4.4842 L2,20.4842 C2,21.5872 2.897,22.4842 4,22.4842 L61,22.4842 C62.103,22.4842 63,21.5872 63,20.4842 L63,4.4842 C63,3.3812 62.103,2.4842 61,2.4842 L4,2.4842 Z M61,24.4842 L4,24.4842 C1.794,24.4842 0,22.6902 0,20.4842 L0,4.4842 C0,2.2782 1.794,0.4842 4,0.4842 L61,0.4842 C63.206,0.4842 65,2.2782 65,4.4842 L65,20.4842 C65,22.6902 63.206,24.4842 61,24.4842 L61,24.4842 Z" id="Fill-10" fill="#201820"></path>
                    <path d="M12,58.8177 C6.486,58.8177 2,63.3037 2,68.8177 C2,74.3317 6.486,78.8177 12,78.8177 L53,78.8177 C58.514,78.8177 63,74.3317 63,68.8177 C63,63.3037 58.514,58.8177 53,58.8177 L12,58.8177 Z M53,80.8177 L12,80.8177 C5.383,80.8177 0,75.4347 0,68.8177 C0,62.2007 5.383,56.8177 12,56.8177 L53,56.8177 C59.617,56.8177 65,62.2007 65,68.8177 C65,75.4347 59.617,80.8177 53,80.8177 L53,80.8177 Z" id="Fill-12" fill="#201820"></path>
                    <path d="M69.8569,82.9999 C66.3329,82.9999 62.7739,81.1829 58.6589,77.2799 C56.4089,75.1459 54.2909,72.6679 52.2419,70.2719 C50.7229,68.4959 49.2879,66.8179 47.8879,65.3809 C47.3999,64.8799 47.1879,64.2089 47.2919,63.4899 C47.3769,62.8979 47.7449,62.2909 48.1489,62.0789 C48.5489,61.8719 48.9099,61.7769 49.2899,61.7769 C49.4699,61.7769 49.6559,61.7979 49.8679,61.8399 C50.4179,61.9499 51.0739,62.2509 51.8209,62.7369 C52.5649,63.2189 53.4069,63.8849 54.3829,64.6549 C55.2309,65.3239 56.1919,66.0829 57.2699,66.8649 C57.3599,66.9299 57.4539,66.9439 57.5159,66.9439 C57.6539,66.9439 57.7799,66.8799 57.8599,66.7689 C57.9269,66.6769 57.9539,66.5609 57.9349,66.4499 L53.8099,43.2639 C53.5129,41.5939 54.7029,40.0329 56.5199,39.7089 C56.7429,39.6689 56.9619,39.6509 57.1729,39.6509 C58.7369,39.6509 60.0099,40.6639 60.2679,42.1139 L63.3619,59.5039 C63.3979,59.7209 63.5769,59.8739 63.7809,59.8739 C64.0019,59.8429 64.0889,59.7499 64.1269,59.6969 C64.1649,59.6439 64.2259,59.5319 64.2009,59.3819 L63.0199,52.7379 L63.0249,52.6239 C62.9349,51.0579 64.0789,49.7069 65.7479,49.4109 C65.9719,49.3709 66.1909,49.3519 66.4029,49.3519 C67.9649,49.3519 69.2359,50.3639 69.4959,51.8139 L70.7129,58.5319 C70.7499,58.7519 70.9279,58.9049 71.1329,58.9049 C71.3539,58.8739 71.4399,58.7809 71.4789,58.7289 C71.5169,58.6749 71.5769,58.5629 71.5529,58.4129 L70.5639,52.9839 L70.6029,52.7659 C70.6209,51.3149 71.5209,50.1449 72.7969,49.9179 C72.9409,49.8929 73.0859,49.8799 73.2309,49.8799 C74.5939,49.8799 75.7329,50.9339 76.0019,52.4419 L76.9049,57.5229 C76.9409,57.7399 77.1199,57.8939 77.3239,57.8939 C77.5449,57.8629 77.6319,57.7699 77.6699,57.7169 C77.7089,57.6639 77.7689,57.5519 77.7449,57.4009 L77.1169,53.8739 L77.1369,53.7209 C77.1059,52.2189 77.9209,51.0409 79.1259,50.8259 C79.2429,50.8049 79.3609,50.7939 79.4819,50.7939 C80.5599,50.7939 81.8089,51.6859 82.1119,53.3889 L84.7619,68.2819 C85.3439,71.5539 84.6169,74.7909 82.7139,77.3959 C80.8339,79.9699 77.9709,81.7129 74.6499,82.3039 L71.6059,82.8449 C71.0289,82.9479 70.4399,82.9999 69.8569,82.9999" id="Fill-14" fill="#FEFEFE"></path>
                    <g id="Group-18" transform="translate(46.000000, 38.000000)">
                        <mask id="mask-5" fill="white">
                            <use xlink:href="#path-4"></use>
                        </mask>
                        <g id="Clip-17"></g>
                        <path d="M11.1738,0.6507 L11.1738,0.6507 C10.8998,0.6507 10.6208,0.6757 10.3448,0.7247 C7.9758,1.1467 6.4298,3.2167 6.8248,5.4387 L10.6948,27.1897 C10.0878,26.7267 9.5228,26.2807 9.0008,25.8687 C8.0068,25.0837 7.1478,24.4057 6.3658,23.8977 C5.5008,23.3357 4.7478,22.9957 4.0648,22.8587 C3.7798,22.8027 3.5348,22.7767 3.2908,22.7767 C2.7438,22.7767 2.2378,22.9067 1.6958,23.1877 C0.9958,23.5497 0.4358,24.4177 0.3018,25.3477 C0.1548,26.3657 0.4718,27.3607 1.1718,28.0787 C2.5488,29.4927 3.9728,31.1587 5.4818,32.9217 C7.5468,35.3377 9.6828,37.8357 11.9708,40.0047 C16.2828,44.0947 20.0598,45.9997 23.8568,45.9997 C24.4988,45.9997 25.1458,45.9427 25.7808,45.8297 L28.8248,45.2877 C32.4008,44.6517 35.4888,42.7687 37.5208,39.9857 C39.5868,37.1577 40.3768,33.6497 39.7468,30.1067 L37.0968,15.2137 C36.7448,13.2327 35.2238,11.7947 33.4818,11.7947 C33.3038,11.7947 33.1248,11.8107 32.9518,11.8407 C32.0198,12.0067 31.2398,12.5847 30.7398,13.4007 C30.1438,11.8987 28.7758,10.8797 27.2308,10.8797 C27.0268,10.8797 26.8218,10.8987 26.6218,10.9337 C25.5688,11.1217 24.7008,11.7607 24.1728,12.6597 C23.5238,11.2637 22.0908,10.3517 20.4038,10.3517 C20.1288,10.3517 19.8488,10.3767 19.5718,10.4257 C18.3528,10.6427 17.3478,11.3007 16.7228,12.2027 L15.2528,3.9397 C14.9078,2.0037 13.2308,0.6507 11.1738,0.6507 M11.1738,2.6507 C12.2658,2.6507 13.1148,3.3417 13.2838,4.2897 L16.3778,21.6787 C16.4918,22.3777 17.0958,22.8737 17.7808,22.8737 C17.8578,22.8737 17.9348,22.8677 18.0128,22.8547 C18.7888,22.7277 19.3148,21.9957 19.1878,21.2197 C19.1858,21.2067 19.1838,21.1937 19.1808,21.1807 L18.0238,14.6757 C18.0258,14.6377 18.0268,14.5997 18.0268,14.5627 C17.9678,13.5777 18.6968,12.6127 19.9228,12.3947 C20.0868,12.3657 20.2478,12.3517 20.4038,12.3517 C21.4938,12.3517 22.3408,13.0377 22.5108,13.9897 L23.7298,20.7107 C23.8428,21.4087 24.4478,21.9047 25.1328,21.9047 C25.2088,21.9047 25.2858,21.8987 25.3638,21.8857 C26.1398,21.7587 26.6668,21.0267 26.5398,20.2507 C26.5378,20.2377 26.5348,20.2247 26.5328,20.2117 L25.5838,15.0027 C25.5818,14.9957 25.5808,14.9877 25.5798,14.9807 C25.5948,14.9117 25.6048,14.8417 25.6098,14.7717 C25.6178,13.7717 26.1978,13.0407 26.9718,12.9027 C27.0578,12.8877 27.1448,12.8797 27.2308,12.8797 C28.0348,12.8797 28.8238,13.5317 29.0168,14.6177 L29.9208,19.6987 C30.0348,20.3977 30.6388,20.8937 31.3248,20.8937 C31.4008,20.8937 31.4778,20.8867 31.5558,20.8747 C32.3318,20.7477 32.8588,20.0157 32.7318,19.2397 C32.7298,19.2267 32.7268,19.2127 32.7248,19.1997 L32.1288,15.8487 C32.1358,15.7887 32.1408,15.7277 32.1408,15.6657 C32.1148,14.6077 32.6778,13.9217 33.3018,13.8097 C33.3608,13.7997 33.4208,13.7947 33.4818,13.7947 C34.1508,13.7947 34.9238,14.4177 35.1278,15.5637 L37.7778,30.4567 C38.8878,36.6947 34.7778,42.1977 28.4748,43.3187 L25.4308,43.8607 C24.9018,43.9547 24.3778,43.9997 23.8568,43.9997 C20.1948,43.9997 16.7308,41.7627 13.3468,38.5547 C9.4838,34.8897 5.9328,30.1007 2.6038,26.6827 C2.3158,26.3867 2.2268,26.0147 2.2818,25.6327 C2.3368,25.2517 2.5768,24.9837 2.6138,24.9637 C2.8728,24.8297 3.0738,24.7767 3.2908,24.7767 C3.4088,24.7767 3.5328,24.7927 3.6738,24.8207 C4.0698,24.8997 4.6098,25.1417 5.2768,25.5747 C6.6098,26.4417 8.3618,27.9907 10.6828,29.6737 C10.9348,29.8567 11.2268,29.9437 11.5158,29.9437 C11.9568,29.9437 12.3928,29.7387 12.6708,29.3537 C12.8948,29.0447 12.9848,28.6577 12.9208,28.2817 L8.7938,5.0877 C8.6018,4.0057 9.3798,2.9277 10.6948,2.6937 C10.8588,2.6647 11.0188,2.6507 11.1738,2.6507" id="Fill-16" fill="#201820" mask="url(#mask-5)"></path>
                    </g>
                    <mask id="mask-7" fill="white">
                        <use xlink:href="#path-6"></use>
                    </mask>
                    <g id="Clip-20"></g>
                    <polygon id="Fill-19" fill="#201820" mask="url(#mask-7)" points="8 13.484 40.388 13.484 40.388 11.484 8 11.484"></polygon>
                    <polygon id="Fill-21" fill="#201820" mask="url(#mask-7)" points="53.3027 15.3509 47.7107 11.6129 48.8217 9.9499 53.3047 12.9469 57.6407 10.0559 58.7507 11.7199"></polygon>
                    <polygon id="Fill-22" fill="#201820" mask="url(#mask-7)" points="8 41.651 25.042 41.651 25.042 39.651 8 39.651"></polygon>
                    <polygon id="Fill-23" fill="#201820" mask="url(#mask-7)" points="28.5 41.651 42.046 41.651 42.046 39.651 28.5 39.651"></polygon>
                </g>
            </g>
        </g>
    </g>
</svg>