<?xml version="1.0" encoding="UTF-8"?>
<svg width="87px" height="78px" viewBox="0 0 87 78" version="1.1" xmlns="http://www.w3.org/2000/svg" xmlns:xlink="http://www.w3.org/1999/xlink">
    <!-- Generator: Sketch 56.3 (81716) - https://sketch.com -->
    <title>icon-instant-decision</title>
    <desc>Created with Sketch.</desc>
    <defs>
        <path d="M3.062,0.038 C1.412,0.038 0.062,1.388 0.062,3.039 L0.062,3.039 L0.062,19 C0.062,20.65 1.412,22 3.062,22 L3.062,22 L19.022,22 C20.673,22 22.023,20.65 22.023,19 L22.023,19 L22.023,3.039 C22.023,1.388 20.673,0.038 19.022,0.038 L19.022,0.038 L3.062,0.038 Z" id="path-1"></path>
        <linearGradient x1="12.0958689%" y1="50%" x2="86.2795234%" y2="60.3877508%" id="linearGradient-3">
            <stop stop-color="#5CB0E2" offset="0%"></stop>
            <stop stop-color="#6F4FA0" offset="100%"></stop>
        </linearGradient>
        <path d="M3.062,0.038 C1.412,0.038 0.062,1.388 0.062,3.039 L0.062,3.039 L0.062,19 C0.062,20.65 1.412,22 3.062,22 L3.062,22 L19.022,22 C20.673,22 22.023,20.65 22.023,19 L22.023,19 L22.023,3.039 C22.023,1.388 20.673,0.038 19.022,0.038 L19.022,0.038 L3.062,0.038 Z" id="path-4"></path>
        <filter x="-236.8%" y="-227.7%" width="573.6%" height="573.5%" filterUnits="objectBoundingBox" id="filter-5">
            <feOffset dx="0" dy="2" in="SourceAlpha" result="shadowOffsetOuter1"></feOffset>
            <feGaussianBlur stdDeviation="17" in="shadowOffsetOuter1" result="shadowBlurOuter1"></feGaussianBlur>
            <feColorMatrix values="0 0 0 0 0   0 0 0 0 0   0 0 0 0 0  0 0 0 0.4 0" type="matrix" in="shadowBlurOuter1"></feColorMatrix>
        </filter>
        <polygon id="path-6" points="0.2442 0.039 34.2442 0.039 34.2442 23.9996 0.2442 23.9996"></polygon>
        <polygon id="path-8" points="0.9317 0.039 24.8927 0.039 24.8927 23.9996 0.9317 23.9996"></polygon>
        <polygon id="path-10" points="0.2442 0.039 34.2442 0.039 34.2442 23.9996 0.2442 23.9996"></polygon>
        <polygon id="path-12" points="0 78 86.893 78 86.893 0.039 0 0.039"></polygon>
    </defs>
    <g id="Page-1" stroke="none" stroke-width="1" fill="none" fill-rule="evenodd">
        <g id="Assets-Playground" transform="translate(-561.000000, -1806.000000)">
            <g id="icon-instant-decision" transform="translate(561.000000, 1805.000000)">
                <g id="Group-3" transform="translate(64.000000, 1.961400)">
                    <mask id="mask-2" fill="white">
                        <use xlink:href="#path-1"></use>
                    </mask>
                    <g id="Clip-2"></g>
                    <g id="Fill-1" mask="url(#mask-2)">
                        <use fill="black" fill-opacity="1" filter="url(#filter-5)" xlink:href="#path-4"></use>
                        <use fill="url(#linearGradient-3)" fill-rule="evenodd" xlink:href="#path-4"></use>
                    </g>
                </g>
                <g id="Group-45" transform="translate(0.000000, 0.961400)">
                    <path d="M56.2442,50 L30.2442,50 C28.5942,50 27.2442,48.65 27.2442,47 L27.2442,31.039 C27.2442,29.389 28.5942,28.039 30.2442,28.039 L56.2442,28.039 C57.8942,28.039 59.2442,29.389 59.2442,31.039 L59.2442,47 C59.2442,48.65 57.8942,50 56.2442,50" id="Fill-4" fill="#FEFEFE"></path>
                    <path d="M30.2442,29.0386 C29.1412,29.0386 28.2442,29.9356 28.2442,31.0386 L28.2442,46.9996 C28.2442,48.1026 29.1412,48.9996 30.2442,48.9996 L56.2442,48.9996 C57.3472,48.9996 58.2442,48.1026 58.2442,46.9996 L58.2442,31.0386 C58.2442,29.9356 57.3472,29.0386 56.2442,29.0386 L30.2442,29.0386 Z M56.2442,50.9996 L30.2442,50.9996 C28.0382,50.9996 26.2442,49.2056 26.2442,46.9996 L26.2442,31.0386 C26.2442,28.8326 28.0382,27.0386 30.2442,27.0386 L56.2442,27.0386 C58.4502,27.0386 60.2442,28.8326 60.2442,31.0386 L60.2442,46.9996 C60.2442,49.2056 58.4502,50.9996 56.2442,50.9996 L56.2442,50.9996 Z" id="Fill-6" fill="#201820"></path>
                    <path d="M56.2442,50 L30.2442,50 C28.5942,50 27.2442,48.65 27.2442,47 L27.2442,31.039 C27.2442,29.389 28.5942,28.039 30.2442,28.039 L56.2442,28.039 C57.8942,28.039 59.2442,29.389 59.2442,31.039 L59.2442,47 C59.2442,48.65 57.8942,50 56.2442,50" id="Fill-8" fill="#FEFEFE"></path>
                    <path d="M30.2442,29.0386 C29.1412,29.0386 28.2442,29.9356 28.2442,31.0386 L28.2442,46.9996 C28.2442,48.1026 29.1412,48.9996 30.2442,48.9996 L56.2442,48.9996 C57.3472,48.9996 58.2442,48.1026 58.2442,46.9996 L58.2442,31.0386 C58.2442,29.9356 57.3472,29.0386 56.2442,29.0386 L30.2442,29.0386 Z M56.2442,50.9996 L30.2442,50.9996 C28.0382,50.9996 26.2442,49.2056 26.2442,46.9996 L26.2442,31.0386 C26.2442,28.8326 28.0382,27.0386 30.2442,27.0386 L56.2442,27.0386 C58.4502,27.0386 60.2442,28.8326 60.2442,31.0386 L60.2442,46.9996 C60.2442,49.2056 58.4502,50.9996 56.2442,50.9996 L56.2442,50.9996 Z" id="Fill-10" fill="#201820"></path>
                    <path d="M56.2442,23 L30.2442,23 C28.5942,23 27.2442,21.65 27.2442,20 L27.2442,4.039 C27.2442,2.389 28.5942,1.039 30.2442,1.039 L56.2442,1.039 C57.8942,1.039 59.2442,2.389 59.2442,4.039 L59.2442,20 C59.2442,21.65 57.8942,23 56.2442,23" id="Fill-12" fill="#FEFEFE"></path>
                    <g id="Group-16" transform="translate(26.000000, 0.000000)">
                        <mask id="mask-7" fill="white">
                            <use xlink:href="#path-6"></use>
                        </mask>
                        <g id="Clip-15"></g>
                        <path d="M4.2442,2.0386 C3.1412,2.0386 2.2442,2.9356 2.2442,4.0386 L2.2442,19.9996 C2.2442,21.1026 3.1412,21.9996 4.2442,21.9996 L30.2442,21.9996 C31.3472,21.9996 32.2442,21.1026 32.2442,19.9996 L32.2442,4.0386 C32.2442,2.9356 31.3472,2.0386 30.2442,2.0386 L4.2442,2.0386 Z M30.2442,23.9996 L4.2442,23.9996 C2.0382,23.9996 0.2442,22.2056 0.2442,19.9996 L0.2442,4.0386 C0.2442,1.8326 2.0382,0.0386 4.2442,0.0386 L30.2442,0.0386 C32.4502,0.0386 34.2442,1.8326 34.2442,4.0386 L34.2442,19.9996 C34.2442,22.2056 32.4502,23.9996 30.2442,23.9996 L30.2442,23.9996 Z" id="Fill-14" fill="#201820" mask="url(#mask-7)"></path>
                    </g>
                    <g id="Group-19" transform="translate(62.000000, 0.000000)">
                        <mask id="mask-9" fill="white">
                            <use xlink:href="#path-8"></use>
                        </mask>
                        <g id="Clip-18"></g>
                        <path d="M4.9317,2.0386 C3.8287,2.0386 2.9317,2.9356 2.9317,4.0386 L2.9317,19.9996 C2.9317,21.1026 3.8287,21.9996 4.9317,21.9996 L20.8927,21.9996 C21.9957,21.9996 22.8927,21.1026 22.8927,19.9996 L22.8927,4.0386 C22.8927,2.9356 21.9957,2.0386 20.8927,2.0386 L4.9317,2.0386 Z M20.8927,23.9996 L4.9317,23.9996 C2.7257,23.9996 0.9317,22.2056 0.9317,19.9996 L0.9317,4.0386 C0.9317,1.8326 2.7257,0.0386 4.9317,0.0386 L20.8927,0.0386 C23.0987,0.0386 24.8927,1.8326 24.8927,4.0386 L24.8927,19.9996 C24.8927,22.2056 23.0987,23.9996 20.8927,23.9996 L20.8927,23.9996 Z" id="Fill-17" fill="#201820" mask="url(#mask-9)"></path>
                    </g>
                    <polygon id="Fill-20" fill="#FFFFFF" points="72.9542 17.2393 69.3002 13.4233 70.7452 12.0403 72.9202 14.3113 79.0642 7.5883 80.5402 8.9373"></polygon>
                    <path d="M82.8931,49.6436 L66.9321,49.6436 C65.2821,49.6436 63.9321,48.2936 63.9321,46.6436 L63.9321,30.6826 C63.9321,29.0326 65.2821,27.6826 66.9321,27.6826 L82.8931,27.6826 C84.5431,27.6826 85.8931,29.0326 85.8931,30.6826 L85.8931,46.6436 C85.8931,48.2936 84.5431,49.6436 82.8931,49.6436" id="Fill-22" fill="#FEFEFE"></path>
                    <path d="M66.9317,28.6821 C65.8287,28.6821 64.9317,29.5791 64.9317,30.6821 L64.9317,46.6431 C64.9317,47.7461 65.8287,48.6431 66.9317,48.6431 L82.8927,48.6431 C83.9957,48.6431 84.8927,47.7461 84.8927,46.6431 L84.8927,30.6821 C84.8927,29.5791 83.9957,28.6821 82.8927,28.6821 L66.9317,28.6821 Z M82.8927,50.6431 L66.9317,50.6431 C64.7257,50.6431 62.9317,48.8491 62.9317,46.6431 L62.9317,30.6821 C62.9317,28.4761 64.7257,26.6821 66.9317,26.6821 L82.8927,26.6821 C85.0987,26.6821 86.8927,28.4761 86.8927,30.6821 L86.8927,46.6431 C86.8927,48.8491 85.0987,50.6431 82.8927,50.6431 L82.8927,50.6431 Z" id="Fill-24" fill="#201820"></path>
                    <polygon id="Fill-26" fill="#201820" points="72.9542 43.8833 69.3002 40.0673 70.7452 38.6843 72.9202 40.9553 79.0642 34.2323 80.5402 35.5803"></polygon>
                    <path d="M56.2442,23 L30.2442,23 C28.5942,23 27.2442,21.65 27.2442,20 L27.2442,4.039 C27.2442,2.389 28.5942,1.039 30.2442,1.039 L56.2442,1.039 C57.8942,1.039 59.2442,2.389 59.2442,4.039 L59.2442,20 C59.2442,21.65 57.8942,23 56.2442,23" id="Fill-28" fill="#FEFEFE"></path>
                    <g id="Group-32" transform="translate(26.000000, 0.000000)">
                        <mask id="mask-11" fill="white">
                            <use xlink:href="#path-10"></use>
                        </mask>
                        <g id="Clip-31"></g>
                        <path d="M4.2442,2.0386 C3.1412,2.0386 2.2442,2.9356 2.2442,4.0386 L2.2442,19.9996 C2.2442,21.1026 3.1412,21.9996 4.2442,21.9996 L30.2442,21.9996 C31.3472,21.9996 32.2442,21.1026 32.2442,19.9996 L32.2442,4.0386 C32.2442,2.9356 31.3472,2.0386 30.2442,2.0386 L4.2442,2.0386 Z M30.2442,23.9996 L4.2442,23.9996 C2.0382,23.9996 0.2442,22.2056 0.2442,19.9996 L0.2442,4.0386 C0.2442,1.8326 2.0382,0.0386 4.2442,0.0386 L30.2442,0.0386 C32.4502,0.0386 34.2442,1.8326 34.2442,4.0386 L34.2442,19.9996 C34.2442,22.2056 32.4502,23.9996 30.2442,23.9996 L30.2442,23.9996 Z" id="Fill-30" fill="#201820" mask="url(#mask-11)"></path>
                    </g>
                    <mask id="mask-13" fill="white">
                        <use xlink:href="#path-12"></use>
                    </mask>
                    <g id="Clip-34"></g>
                    <polygon id="Fill-33" fill="#201820" mask="url(#mask-13)" points="34.496 13.039 44.815 13.039 44.815 11.039 34.496 11.039"></polygon>
                    <path d="M56.2442,77 L30.2442,77 C28.5942,77 27.2442,75.65 27.2442,74 L27.2442,58.039 C27.2442,56.389 28.5942,55.039 30.2442,55.039 L56.2442,55.039 C57.8942,55.039 59.2442,56.389 59.2442,58.039 L59.2442,74 C59.2442,75.65 57.8942,77 56.2442,77" id="Fill-35" fill="#FEFEFE" mask="url(#mask-13)"></path>
                    <path d="M30.2442,56.0386 C29.1412,56.0386 28.2442,56.9356 28.2442,58.0386 L28.2442,73.9996 C28.2442,75.1026 29.1412,75.9996 30.2442,75.9996 L56.2442,75.9996 C57.3472,75.9996 58.2442,75.1026 58.2442,73.9996 L58.2442,58.0386 C58.2442,56.9356 57.3472,56.0386 56.2442,56.0386 L30.2442,56.0386 Z M56.2442,77.9996 L30.2442,77.9996 C28.0382,77.9996 26.2442,76.2056 26.2442,73.9996 L26.2442,58.0386 C26.2442,55.8326 28.0382,54.0386 30.2442,54.0386 L56.2442,54.0386 C58.4502,54.0386 60.2442,55.8326 60.2442,58.0386 L60.2442,73.9996 C60.2442,76.2056 58.4502,77.9996 56.2442,77.9996 L56.2442,77.9996 Z" id="Fill-36" fill="#201820" mask="url(#mask-13)"></path>
                    <path d="M56.2442,77 L30.2442,77 C28.5942,77 27.2442,75.65 27.2442,74 L27.2442,58.039 C27.2442,56.389 28.5942,55.039 30.2442,55.039 L56.2442,55.039 C57.8942,55.039 59.2442,56.389 59.2442,58.039 L59.2442,74 C59.2442,75.65 57.8942,77 56.2442,77" id="Fill-37" fill="#FEFEFE" mask="url(#mask-13)"></path>
                    <path d="M30.2442,56.0386 C29.1412,56.0386 28.2442,56.9356 28.2442,58.0386 L28.2442,73.9996 C28.2442,75.1026 29.1412,75.9996 30.2442,75.9996 L56.2442,75.9996 C57.3472,75.9996 58.2442,75.1026 58.2442,73.9996 L58.2442,58.0386 C58.2442,56.9356 57.3472,56.0386 56.2442,56.0386 L30.2442,56.0386 Z M56.2442,77.9996 L30.2442,77.9996 C28.0382,77.9996 26.2442,76.2056 26.2442,73.9996 L26.2442,58.0386 C26.2442,55.8326 28.0382,54.0386 30.2442,54.0386 L56.2442,54.0386 C58.4502,54.0386 60.2442,55.8326 60.2442,58.0386 L60.2442,73.9996 C60.2442,76.2056 58.4502,77.9996 56.2442,77.9996 L56.2442,77.9996 Z" id="Fill-38" fill="#201820" mask="url(#mask-13)"></path>
                    <polygon id="Fill-39" fill="#201820" mask="url(#mask-13)" points="34.495 67.039 48.03 67.039 48.03 65.039 34.495 65.039"></polygon>
                    <path d="M82.8931,76.6436 L66.9321,76.6436 C65.2821,76.6436 63.9321,75.2936 63.9321,73.6436 L63.9321,57.6826 C63.9321,56.0326 65.2821,54.6826 66.9321,54.6826 L82.8931,54.6826 C84.5431,54.6826 85.8931,56.0326 85.8931,57.6826 L85.8931,73.6436 C85.8931,75.2936 84.5431,76.6436 82.8931,76.6436" id="Fill-40" fill="#FEFEFE" mask="url(#mask-13)"></path>
                    <path d="M66.9317,55.6821 C65.8287,55.6821 64.9317,56.5791 64.9317,57.6821 L64.9317,73.6431 C64.9317,74.7461 65.8287,75.6431 66.9317,75.6431 L82.8927,75.6431 C83.9957,75.6431 84.8927,74.7461 84.8927,73.6431 L84.8927,57.6821 C84.8927,56.5791 83.9957,55.6821 82.8927,55.6821 L66.9317,55.6821 Z M82.8927,77.6431 L66.9317,77.6431 C64.7257,77.6431 62.9317,75.8491 62.9317,73.6431 L62.9317,57.6821 C62.9317,55.4761 64.7257,53.6821 66.9317,53.6821 L82.8927,53.6821 C85.0987,53.6821 86.8927,55.4761 86.8927,57.6821 L86.8927,73.6431 C86.8927,75.8491 85.0987,77.6431 82.8927,77.6431 L82.8927,77.6431 Z" id="Fill-41" fill="#201820" mask="url(#mask-13)"></path>
                    <polygon id="Fill-42" fill="#201820" mask="url(#mask-13)" points="72.9542 70.8833 69.3002 67.0673 70.7452 65.6843 72.9202 67.9553 79.0642 61.2323 80.5402 62.5803"></polygon>
                    <path d="M12.7452,58.6421 C5.8872,58.4821 0.8392,53.0281 1.0042,45.9541 L1.0762,42.8621 C1.2022,37.4371 5.7132,33.6511 9.0952,31.2741 C12.4432,28.9221 14.5842,24.3331 15.7342,21.8691 C15.9892,21.3241 16.1952,20.8861 16.3522,20.5971 C17.7782,17.1871 19.8762,16.8171 20.7152,16.8171 C21.6562,16.8171 22.5162,17.2231 23.1372,17.9601 C23.8782,18.8381 24.1732,20.0961 23.9482,21.4091 L23.8072,22.2531 C23.2712,25.4821 22.8492,28.0321 19.6732,31.8761 C19.6582,31.8941 19.3172,32.3141 19.5562,32.5731 C19.6332,32.6561 19.7422,32.7061 19.8552,32.7091 L34.4122,33.2581 C36.0932,33.2971 37.3872,34.7731 37.3452,36.6181 C37.3022,38.4421 35.9992,39.8171 34.3132,39.8171 L25.5632,39.4041 C25.3282,39.4041 25.1422,39.5831 25.1342,39.8121 C25.1252,40.0461 25.3082,40.2431 25.5422,40.2511 L32.2862,40.4091 L32.3952,40.4361 C33.9512,40.6601 35.0482,42.0481 35.0082,43.7421 C34.9662,45.5651 33.6622,46.9401 31.9762,46.9401 C31.9762,46.9401 25.0832,46.8031 25.0822,46.8031 C24.8212,46.8031 24.6362,46.9821 24.6282,47.2101 C24.6192,47.4441 24.8022,47.6411 25.0362,47.6491 L30.5542,47.7541 L30.7622,47.8381 C32.1762,48.1411 33.1452,49.2541 33.1142,50.5511 C33.0802,52.0331 31.7532,53.1931 30.0932,53.1931 C30.0932,53.1931 24.8452,53.0721 24.8452,53.0721 C24.5862,53.0721 24.4012,53.2511 24.3932,53.4791 C24.3872,53.6321 24.4612,53.7361 24.5052,53.7841 C24.5502,53.8311 24.6472,53.9131 24.8002,53.9181 L28.3802,54.0021 L28.5242,54.0511 C30.0072,54.3191 31.0002,55.3521 30.9722,56.5761 C30.9442,57.7661 29.8112,58.9961 27.9622,58.9961 L12.7452,58.6421 Z" id="Fill-43" fill="#FEFEFE" mask="url(#mask-13)"></path>
                    <path d="M20.7154,15.8174 L20.7154,15.8174 C19.6794,15.8174 17.1074,16.2444 15.4494,20.1634 C15.2744,20.4894 15.0744,20.9184 14.8284,21.4454 C13.7174,23.8264 11.6504,28.2564 8.5204,30.4564 C4.9604,32.9574 0.2134,36.9624 0.0754,42.8394 L0.0044,45.9304 C-0.1706,53.4494 5.4154,59.4724 12.7214,59.6424 L27.8444,59.9944 L27.9634,59.9954 C30.1664,59.9954 31.9274,58.5034 31.9714,56.5994 C31.9934,55.6524 31.5814,54.7754 30.8824,54.1234 C32.7084,53.7964 34.0724,52.3554 34.1144,50.5744 C34.1394,49.5034 33.6834,48.5254 32.9044,47.8284 C34.6604,47.3984 35.9624,45.7674 36.0084,43.7654 C36.0354,42.5994 35.6424,41.5434 34.9614,40.7624 C36.8564,40.4444 38.2954,38.7484 38.3444,36.6414 C38.4004,34.2354 36.6774,32.3104 34.4214,32.2574 L21.0494,31.7534 C23.8504,28.1004 24.2894,25.4534 24.7934,22.4184 L24.9334,21.5784 C25.2094,19.9734 24.8324,18.4194 23.9014,17.3154 C23.0984,16.3634 21.9374,15.8174 20.7154,15.8174 M20.7154,17.8174 C22.1624,17.8174 23.3034,19.2514 22.9624,21.2404 C22.3484,24.8234 22.1714,27.2814 18.9014,31.2394 C18.4014,31.8454 18.2884,32.6734 18.8214,33.2514 C19.0804,33.5324 19.4414,33.6964 19.8234,33.7084 L34.3744,34.2574 C35.4734,34.2824 36.3764,35.2584 36.3454,36.5944 C36.3144,37.9124 35.3924,38.8174 34.3134,38.8174 C34.2984,38.8174 34.2834,38.8164 34.2684,38.8164 L25.6104,38.4044 C25.5924,38.4044 25.5744,38.4034 25.5564,38.4034 C24.7944,38.4034 24.1634,39.0064 24.1344,39.7744 C24.1054,40.5604 24.7184,41.2214 25.5044,41.2504 C25.5174,41.2514 25.5304,41.2514 25.5444,41.2514 L32.1494,41.4054 C32.1854,41.4154 32.2224,41.4234 32.2594,41.4304 C33.2364,41.5674 34.0384,42.4734 34.0084,43.7184 C33.9784,45.0354 33.0634,45.9404 31.9764,45.9404 C31.9624,45.9404 31.9474,45.9404 31.9324,45.9394 L25.1044,45.8024 C25.0864,45.8024 25.0684,45.8014 25.0504,45.8014 C24.2884,45.8014 23.6574,46.4044 23.6284,47.1724 C23.5984,47.9584 24.2124,48.6194 24.9984,48.6484 C25.0114,48.6494 25.0254,48.6494 25.0384,48.6494 L30.3314,48.7504 C30.3394,48.7514 30.3464,48.7514 30.3544,48.7514 C30.4184,48.7794 30.4844,48.8034 30.5524,48.8224 C31.5314,49.0274 32.1334,49.7414 32.1144,50.5274 C32.0944,51.4124 31.2784,52.1934 30.0924,52.1934 C30.0714,52.1934 30.0504,52.1924 30.0284,52.1924 L24.8694,52.0724 C24.8514,52.0714 24.8334,52.0714 24.8154,52.0714 C24.0534,52.0714 23.4224,52.6744 23.3934,53.4424 C23.3634,54.2274 23.9774,54.8884 24.7624,54.9184 C24.7764,54.9184 24.7894,54.9194 24.8034,54.9194 L28.2054,54.9984 C28.2634,55.0184 28.3224,55.0344 28.3824,55.0464 C29.4254,55.2314 29.9864,55.9184 29.9714,56.5524 C29.9554,57.2524 29.1914,57.9954 27.9634,57.9954 C27.9394,57.9954 27.9154,57.9954 27.8914,57.9944 L12.7684,57.6424 C6.4344,57.4954 1.8544,52.3774 2.0034,45.9774 L2.0754,42.8854 C2.1754,38.5724 5.3124,35.1544 9.6694,32.0924 C14.0274,29.0314 16.4104,22.5314 17.2544,21.0314 C18.1994,18.7384 19.5554,17.8174 20.7154,17.8174" id="Fill-44" fill="#201820" mask="url(#mask-13)"></path>
                </g>
            </g>
        </g>
    </g>
</svg>