<svg xmlns="http://www.w3.org/2000/svg" viewBox="0 0 918.26 252.9"><defs><style>.cls-1{fill:#375e96;}</style></defs><g id="Layer_2" data-name="Layer 2"><g id="Layer_1-2" data-name="Layer 1"><path class="cls-1" d="M313.18,175.3v-115h42.5q11.93,0,20.77,4.21A31.76,31.76,0,0,1,390.18,76.7q4.88,8,4.87,19.23a39.94,39.94,0,0,1-2.82,15.3A32.9,32.9,0,0,1,384.11,123a36,36,0,0,1-12.89,7.56l37.35,44.74H374.5l-31.91-41.46H340V175.3ZM340,111.54h7a29.84,29.84,0,0,0,10.8-1.71,13.73,13.73,0,0,0,6.66-5,14.06,14.06,0,0,0,2.26-8.08q0-7.32-5.08-11.15T347,81.72h-7Z"/><path class="cls-1" d="M443.9,177.53a43.83,43.83,0,0,1-21-5,38.71,38.71,0,0,1-14.73-13.59,35.56,35.56,0,0,1-5.4-19.37,36.15,36.15,0,0,1,3.06-14.88,37.49,37.49,0,0,1,8.57-12,39.38,39.38,0,0,1,12.86-8.05,43.67,43.67,0,0,1,15.92-2.85,39.83,39.83,0,0,1,19.55,4.63,33.62,33.62,0,0,1,13.13,12.89,37.73,37.73,0,0,1,4.74,19.13c0,.6,0,1.16,0,1.67s-.1,1.53-.24,3.06H428.92a13.79,13.79,0,0,0,2,7.53,13.38,13.38,0,0,0,5.71,5,19.83,19.83,0,0,0,8.71,1.78,17.64,17.64,0,0,0,8.15-1.78,28.21,28.21,0,0,0,7.39-5.89l18.25,9.13a35,35,0,0,1-14.38,13.73A44,44,0,0,1,443.9,177.53Zm-14.22-47.25H455.6a12.63,12.63,0,0,0-2.23-5.85,11.05,11.05,0,0,0-4.46-3.59,15.39,15.39,0,0,0-6.34-1.22,16,16,0,0,0-6.58,1.26,10.18,10.18,0,0,0-4.43,3.62A12,12,0,0,0,429.68,130.28Z"/><path class="cls-1" d="M528.14,213.62q-14.77,0-24.77-5.26A30.74,30.74,0,0,1,489,192.85l20.62-10.1a19.13,19.13,0,0,0,7.77,6.48A24.1,24.1,0,0,0,528,191.67a18.9,18.9,0,0,0,9.23-2.16,15.62,15.62,0,0,0,6.1-5.85,16.37,16.37,0,0,0,2.16-8.36v-7.39A35.17,35.17,0,0,1,534.65,175,32.63,32.63,0,0,1,522,177.53a33.27,33.27,0,0,1-17.55-4.81,35.46,35.46,0,0,1-12.72-13.38A39.87,39.87,0,0,1,487,139.62a40,40,0,0,1,4.63-19.37,35.5,35.5,0,0,1,12.68-13.55,34.19,34.19,0,0,1,18.36-5,34.86,34.86,0,0,1,12.72,2.3,28.75,28.75,0,0,1,10.14,6.48V104h25.43v73.3a37.6,37.6,0,0,1-4.5,18.29,32.2,32.2,0,0,1-14,13.17Q543,213.61,528.14,213.62ZM529.81,156a16.33,16.33,0,0,0,8.39-2.13,15.37,15.37,0,0,0,5.75-5.82,16.45,16.45,0,0,0,2.09-8.29,16.81,16.81,0,0,0-2.12-8.5,16,16,0,0,0-5.75-5.85,16.1,16.1,0,0,0-22.26,5.88,16.91,16.91,0,0,0-2.13,8.54,16.57,16.57,0,0,0,2.06,8.26,15.23,15.23,0,0,0,5.68,5.78A16,16,0,0,0,529.81,156Z"/><path class="cls-1" d="M624.22,213.62q-14.78,0-24.77-5.26a30.78,30.78,0,0,1-14.39-15.51l20.63-10.1a19.13,19.13,0,0,0,7.77,6.48,24,24,0,0,0,10.62,2.44,18.88,18.88,0,0,0,9.23-2.16,15.55,15.55,0,0,0,6.1-5.85,16.27,16.27,0,0,0,2.16-8.36v-7.39A35.13,35.13,0,0,1,630.74,175a32.67,32.67,0,0,1-12.65,2.51,33.33,33.33,0,0,1-17.56-4.81,35.46,35.46,0,0,1-12.72-13.38A39.87,39.87,0,0,1,583,139.62a40,40,0,0,1,4.63-19.37,35.45,35.45,0,0,1,12.69-13.55,34.15,34.15,0,0,1,18.36-5,34.84,34.84,0,0,1,12.71,2.3,28.75,28.75,0,0,1,10.14,6.48V104H667v73.3a37.71,37.71,0,0,1-4.49,18.29,32.31,32.31,0,0,1-14,13.17Q639.06,213.61,624.22,213.62ZM625.89,156a16.39,16.39,0,0,0,8.4-2.13,15.45,15.45,0,0,0,5.75-5.82,17.75,17.75,0,0,0,0-16.79,16,16,0,0,0-5.75-5.85,15.71,15.71,0,0,0-8.22-2.16,15.69,15.69,0,0,0-14,8,16.91,16.91,0,0,0-2.12,8.54,16.57,16.57,0,0,0,2,8.26,15.3,15.3,0,0,0,5.68,5.78A16.06,16.06,0,0,0,625.89,156Z"/><path class="cls-1" d="M720.31,177.53a47.89,47.89,0,0,1-21.74-4.85,38.63,38.63,0,0,1-15.33-13.38,37.1,37.1,0,0,1,0-39.36,38.7,38.7,0,0,1,15.33-13.38,51.25,51.25,0,0,1,43.48,0,38.84,38.84,0,0,1,15.33,13.38,37.16,37.16,0,0,1,0,39.36,38.76,38.76,0,0,1-15.33,13.38A48,48,0,0,1,720.31,177.53Zm0-21.6a16.06,16.06,0,0,0,8.11-2.09,15.74,15.74,0,0,0,5.82-5.75,16.34,16.34,0,0,0,2.16-8.47,16.53,16.53,0,0,0-2.16-8.5,15.37,15.37,0,0,0-5.82-5.75,17.09,17.09,0,0,0-16.23,0,15.37,15.37,0,0,0-5.82,5.75,16.53,16.53,0,0,0-2.16,8.5,16.34,16.34,0,0,0,2.16,8.47,15.74,15.74,0,0,0,5.82,5.75A16.1,16.1,0,0,0,720.31,155.93Z"/><path class="cls-1" d="M774,175.3V104h25.43v10.1a31,31,0,0,1,10.1-9.09,25.15,25.15,0,0,1,12.34-3.24,29.6,29.6,0,0,1,8.29,1.25,24,24,0,0,1,7.18,3.28l-10.6,21.39a22.4,22.4,0,0,0-5.85-2.83,20.29,20.29,0,0,0-6.2-1.08,14.65,14.65,0,0,0-7.42,2,16.6,16.6,0,0,0-5.68,5.26,12.37,12.37,0,0,0-2.16,7V175.3Z"/><path class="cls-1" d="M869.63,177.53a33.42,33.42,0,0,1-17.84-4.92A35.74,35.74,0,0,1,839,159.1a42.94,42.94,0,0,1-.21-38.81,35.36,35.36,0,0,1,12.47-13.56,33.62,33.62,0,0,1,18.33-5,35.94,35.94,0,0,1,12.85,2.3,29.11,29.11,0,0,1,10.35,6.48V104h25.43V175.3H892.83v-7.39A36.21,36.21,0,0,1,882,175.09,31.73,31.73,0,0,1,869.63,177.53ZM877.29,156a16.17,16.17,0,0,0,8.36-2.13,15,15,0,0,0,5.65-5.82,17.34,17.34,0,0,0,2-8.43,17,17,0,0,0-2.06-8.43,15.19,15.19,0,0,0-5.68-5.82,17.21,17.21,0,0,0-16.55,0,15.74,15.74,0,0,0-5.78,5.82,16.55,16.55,0,0,0-2.12,8.43,16.83,16.83,0,0,0,2.09,8.4,15.36,15.36,0,0,0,5.74,5.85A16.26,16.26,0,0,0,877.29,156Z"/><path class="cls-1" d="M126.45,0A126.45,126.45,0,1,0,252.9,126.45,126.45,126.45,0,0,0,126.45,0ZM79.7,175.31H43.12V91.69L79.7,72.82Zm71.41-.21H101.78V62.16L126.3,50l24.81,12.29Zm58.67.21H173.2V72.82l36.58,18.87Z"/></g></g></svg>